<svg width="1028" height="650" viewBox="0 0 1028 650" fill="none" xmlns="http://www.w3.org/2000/svg">
<path fill-rule="evenodd" clip-rule="evenodd" d="M34.5556 592.333H65.2222C66.6278 592.333 67.7778 593.483 67.7778 594.889V603.833L78 593.611V621.722L67.7778 611.5V620.444C67.7778 621.85 66.6278 623 65.2222 623H34.5556C33.15 623 32 621.85 32 620.444V594.889C32 593.483 33.15 592.333 34.5556 592.333ZM62.6667 617.889V597.444H37.1111V617.889H62.6667Z" fill="#757575"/>
<path d="M409.5 10.5L825 108.5V487L409.5 395.5V10.5Z" fill="#49A09D" fill-opacity="0.5"/>
<path d="M272.5 237L533.5 298.5V538.5L276.5 479.5L272.5 237Z" fill="#8062BD" fill-opacity="0.5"/>
<line x1="825.493" y1="111.507" x2="824.501" y2="487.507" stroke="#757575" stroke-width="5" stroke-linecap="round"/>
<line x1="58.7994" y1="585.84" x2="84.8405" y2="589.201" stroke="#757575" stroke-width="5" stroke-linecap="round" stroke-linejoin="round"/>
<line x1="87.8343" y1="592.564" x2="408.564" y2="397.166" stroke="#DADADA" stroke-width="5" stroke-linecap="round" stroke-dasharray="8 8"/>
<line x1="272.541" y1="241.458" x2="276.458" y2="478.459" stroke="#DADADA" stroke-width="5" stroke-linecap="round" stroke-dasharray="8 8"/>
<line x1="410.493" y1="14.5065" x2="409.504" y2="395.506" stroke="#DADADA" stroke-width="5" stroke-linecap="round" stroke-dasharray="8 8"/>
<line x1="824.021" y1="487.904" x2="409.949" y2="396.772" stroke="#DADADA" stroke-width="5" stroke-linecap="round" stroke-dasharray="8 8"/>
<line x1="532.003" y1="538.876" x2="275.876" y2="479.997" stroke="#DADADA" stroke-width="5" stroke-linecap="round" stroke-dasharray="8 8"/>
<line x1="87.5" y1="590.5" x2="87.5" y2="617.5" stroke="#757575" stroke-width="5" stroke-linecap="round" stroke-linejoin="round"/>
<line x1="87.7282" y1="588.54" x2="823.242" y2="108.814" stroke="#757575" stroke-width="5" stroke-linecap="round"/>
<line x1="89.0304" y1="617.106" x2="825.106" y2="487.97" stroke="#757575" stroke-width="5" stroke-linecap="round"/>
<line x1="411.012" y1="10.1487" x2="825.149" y2="108.988" stroke="#757575" stroke-width="5" stroke-linecap="round"/>
<line x1="272.999" y1="237.127" x2="532.127" y2="297.001" stroke="#757575" stroke-width="5" stroke-linecap="round"/>
<line x1="533.51" y1="298.49" x2="534.477" y2="537.49" stroke="#757575" stroke-width="5" stroke-linecap="round"/>
<path d="M58.147 585.59L409.393 9.71766" stroke="#757575" stroke-width="5" stroke-linecap="round"/>
<path d="M823.219 398.754C822.25 397.771 822.262 396.188 823.246 395.219C824.229 394.25 825.812 394.262 826.781 395.246L823.219 398.754ZM931 461.5C932.381 461.5 933.5 462.619 933.5 464C933.5 465.381 932.381 466.5 931 466.5L931 461.5ZM895.186 464L895.186 466.5L895.186 464ZM826.781 395.246L889.843 459.263L886.281 462.772L823.219 398.754L826.781 395.246ZM895.186 461.5L931 461.5L931 466.5L895.186 466.5L895.186 461.5ZM889.843 459.263C891.253 460.694 893.178 461.5 895.186 461.5L895.186 466.5C891.838 466.5 888.631 465.157 886.281 462.772L889.843 459.263Z" fill="#49A09D"/>
<path d="M912.235 453.163C911.462 451.955 912.747 450.459 913.926 451.195L936.173 463.059C936.526 463.247 936.526 463.753 936.173 463.941L913.981 475.784C912.824 476.556 911.496 475.102 912.235 473.87C916.225 467.213 916.411 459.693 912.235 453.163Z" fill="#49A09D"/>
<path d="M959.59 472H944.068V468.836L953.174 456.443H944.613V452.348H959.273V455.828L950.414 467.904H959.59V472ZM978.627 472H973.266V446.301H987.996V450.766H978.627V457.393H987.346V461.84H978.627V472ZM1005.08 472L1004.04 469.328H1003.9C1003 470.465 1002.07 471.256 1001.11 471.701C1000.16 472.135 998.918 472.352 997.383 472.352C995.496 472.352 994.008 471.812 992.918 470.734C991.84 469.656 991.301 468.121 991.301 466.129C991.301 464.043 992.027 462.508 993.48 461.523C994.945 460.527 997.148 459.977 1000.09 459.871L1003.5 459.766V458.904C1003.5 456.912 1002.48 455.916 1000.44 455.916C998.871 455.916 997.025 456.391 994.904 457.34L993.129 453.719C995.391 452.535 997.898 451.943 1000.65 451.943C1003.29 451.943 1005.31 452.518 1006.72 453.666C1008.12 454.814 1008.83 456.561 1008.83 458.904V472H1005.08ZM1003.5 462.895L1001.43 462.965C999.867 463.012 998.707 463.293 997.945 463.809C997.184 464.324 996.803 465.109 996.803 466.164C996.803 467.676 997.67 468.432 999.404 468.432C1000.65 468.432 1001.64 468.074 1002.38 467.359C1003.12 466.645 1003.5 465.695 1003.5 464.512V462.895ZM1025.33 451.979C1026.06 451.979 1026.66 452.031 1027.14 452.137L1026.74 457.164C1026.3 457.047 1025.78 456.988 1025.16 456.988C1023.45 456.988 1022.11 457.428 1021.15 458.307C1020.2 459.186 1019.72 460.416 1019.72 461.998V472H1014.36V452.348H1018.42L1019.21 455.652H1019.48C1020.09 454.551 1020.91 453.666 1021.94 452.998C1022.98 452.318 1024.11 451.979 1025.33 451.979Z" fill="#49A09D"/>
<path d="M533.227 470.263C532.254 469.284 532.258 467.701 533.237 466.727C534.216 465.754 535.799 465.758 536.773 466.737L533.227 470.263ZM663 554.5C664.381 554.5 665.5 555.619 665.5 557C665.5 558.381 664.381 559.5 663 559.5L663 554.5ZM620.068 554.051L618.295 555.814L620.068 554.051ZM627.159 557L627.159 559.5L627.159 557ZM536.773 466.737L621.84 552.288L618.295 555.814L533.227 470.263L536.773 466.737ZM627.159 554.5L663 554.5L663 559.5L627.159 559.5L627.159 554.5ZM621.84 552.288C623.248 553.704 625.162 554.5 627.159 554.5L627.159 559.5C623.831 559.5 620.641 558.173 618.295 555.814L621.84 552.288Z" fill="#8062BD"/>
<path d="M644.235 546.163C643.462 544.955 644.747 543.459 645.926 544.195L668.173 556.059C668.526 556.247 668.526 556.753 668.173 556.941L645.981 568.784C644.824 569.556 643.496 568.102 644.235 566.87C648.225 560.213 648.411 552.693 644.235 546.163Z" fill="#8062BD"/>
<path d="M692.691 565H677.17V561.836L686.275 549.443H677.715V545.348H692.375V548.828L683.516 560.904H692.691V565ZM729.166 565H722.24L711.061 545.559H710.902C711.125 548.992 711.236 551.441 711.236 552.906V565H706.367V539.301H713.24L724.402 558.549H724.525C724.35 555.209 724.262 552.848 724.262 551.465V539.301H729.166V565ZM743.369 548.793C742.232 548.793 741.342 549.156 740.697 549.883C740.053 550.598 739.684 551.617 739.59 552.941H747.113C747.09 551.617 746.744 550.598 746.076 549.883C745.408 549.156 744.506 548.793 743.369 548.793ZM744.125 565.352C740.961 565.352 738.488 564.479 736.707 562.732C734.926 560.986 734.035 558.514 734.035 555.314C734.035 552.021 734.855 549.479 736.496 547.686C738.148 545.881 740.428 544.979 743.334 544.979C746.111 544.979 748.273 545.77 749.82 547.352C751.367 548.934 752.141 551.119 752.141 553.908V556.51H739.467C739.525 558.033 739.977 559.223 740.82 560.078C741.664 560.934 742.848 561.361 744.371 561.361C745.555 561.361 746.674 561.238 747.729 560.992C748.783 560.746 749.885 560.354 751.033 559.814V563.963C750.096 564.432 749.094 564.777 748.027 565C746.961 565.234 745.66 565.352 744.125 565.352ZM768.98 565L767.943 562.328H767.803C766.9 563.465 765.969 564.256 765.008 564.701C764.059 565.135 762.816 565.352 761.281 565.352C759.395 565.352 757.906 564.812 756.816 563.734C755.738 562.656 755.199 561.121 755.199 559.129C755.199 557.043 755.926 555.508 757.379 554.523C758.844 553.527 761.047 552.977 763.988 552.871L767.398 552.766V551.904C767.398 549.912 766.379 548.916 764.34 548.916C762.77 548.916 760.924 549.391 758.803 550.34L757.027 546.719C759.289 545.535 761.797 544.943 764.551 544.943C767.188 544.943 769.209 545.518 770.615 546.666C772.021 547.814 772.725 549.561 772.725 551.904V565H768.98ZM767.398 555.895L765.324 555.965C763.766 556.012 762.605 556.293 761.844 556.809C761.082 557.324 760.701 558.109 760.701 559.164C760.701 560.676 761.568 561.432 763.303 561.432C764.545 561.432 765.535 561.074 766.273 560.359C767.023 559.645 767.398 558.695 767.398 557.512V555.895ZM789.23 544.979C789.957 544.979 790.561 545.031 791.041 545.137L790.637 550.164C790.203 550.047 789.676 549.988 789.055 549.988C787.344 549.988 786.008 550.428 785.047 551.307C784.098 552.186 783.623 553.416 783.623 554.998V565H778.262V545.348H782.322L783.113 548.652H783.377C783.986 547.551 784.807 546.666 785.838 545.998C786.881 545.318 788.012 544.979 789.23 544.979Z" fill="#8062BD"/>
<path d="M14.5215 54.4668C12.4707 54.4668 10.8828 55.2402 9.75781 56.7871C8.63281 58.3223 8.07031 60.4668 8.07031 63.2207C8.07031 68.9512 10.2207 71.8164 14.5215 71.8164C16.3262 71.8164 18.5117 71.3652 21.0781 70.4629V75.0332C18.9688 75.9121 16.6133 76.3516 14.0117 76.3516C10.2734 76.3516 7.41406 75.2207 5.43359 72.959C3.45312 70.6855 2.46289 67.4277 2.46289 63.1855C2.46289 60.5137 2.94922 58.1758 3.92188 56.1719C4.89453 54.1562 6.28906 52.6152 8.10547 51.5488C9.93359 50.4707 12.0723 49.9316 14.5215 49.9316C17.0176 49.9316 19.5254 50.5352 22.0449 51.7422L20.2871 56.1719C19.3262 55.7148 18.3594 55.3164 17.3867 54.9766C16.4141 54.6367 15.459 54.4668 14.5215 54.4668ZM38.6211 76L37.584 73.3281H37.4434C36.541 74.4648 35.6094 75.2559 34.6484 75.7012C33.6992 76.1348 32.457 76.3516 30.9219 76.3516C29.0352 76.3516 27.5469 75.8125 26.457 74.7344C25.3789 73.6562 24.8398 72.1211 24.8398 70.1289C24.8398 68.043 25.5664 66.5078 27.0195 65.5234C28.4844 64.5273 30.6875 63.9766 33.6289 63.8711L37.0391 63.7656V62.9043C37.0391 60.9121 36.0195 59.916 33.9805 59.916C32.4102 59.916 30.5645 60.3906 28.4434 61.3398L26.668 57.7188C28.9297 56.5352 31.4375 55.9434 34.1914 55.9434C36.8281 55.9434 38.8496 56.5176 40.2559 57.666C41.6621 58.8145 42.3652 60.5605 42.3652 62.9043V76H38.6211ZM37.0391 66.8945L34.9648 66.9648C33.4062 67.0117 32.2461 67.293 31.4844 67.8086C30.7227 68.3242 30.3418 69.1094 30.3418 70.1641C30.3418 71.6758 31.209 72.4316 32.9434 72.4316C34.1855 72.4316 35.1758 72.0742 35.9141 71.3594C36.6641 70.6445 37.0391 69.6953 37.0391 68.5117V66.8945ZM65.498 76H60.1367V64.5215C60.1367 63.1035 59.8965 62.043 59.416 61.3398C58.9473 60.625 58.2031 60.2676 57.1836 60.2676C55.8125 60.2676 54.8164 60.7715 54.1953 61.7793C53.5742 62.7871 53.2637 64.4453 53.2637 66.7539V76H47.9023V56.3477H51.998L52.7188 58.8613H53.0176C53.5449 57.959 54.3066 57.2559 55.3027 56.752C56.2988 56.2363 57.4414 55.9785 58.7305 55.9785C61.6719 55.9785 63.6641 56.9395 64.707 58.8613H65.1816C65.709 57.9473 66.4824 57.2383 67.502 56.7344C68.5332 56.2305 69.6934 55.9785 70.9824 55.9785C73.209 55.9785 74.8906 56.5527 76.0273 57.7012C77.1758 58.8379 77.75 60.666 77.75 63.1855V76H72.3711V64.5215C72.3711 63.1035 72.1309 62.043 71.6504 61.3398C71.1816 60.625 70.4375 60.2676 69.418 60.2676C68.1055 60.2676 67.1211 60.7363 66.4648 61.6738C65.8203 62.6113 65.498 64.0996 65.498 66.1387V76ZM94.0625 76.3516C91.7539 76.3516 89.9434 75.5137 88.6309 73.8379H88.3496C88.5371 75.4785 88.6309 76.4277 88.6309 76.6855V84.6484H83.2695V56.3477H87.6289L88.3848 58.8965H88.6309C89.8848 56.9512 91.7422 55.9785 94.2031 55.9785C96.5234 55.9785 98.3398 56.875 99.6523 58.668C100.965 60.4609 101.621 62.9512 101.621 66.1387C101.621 68.2363 101.311 70.0586 100.689 71.6055C100.08 73.1523 99.207 74.3301 98.0703 75.1387C96.9336 75.9473 95.5977 76.3516 94.0625 76.3516ZM92.4805 60.2676C91.1562 60.2676 90.1895 60.6777 89.5801 61.498C88.9707 62.3066 88.6543 63.6484 88.6309 65.5234V66.1035C88.6309 68.2129 88.9414 69.7246 89.5625 70.6387C90.1953 71.5527 91.1914 72.0098 92.5508 72.0098C94.9531 72.0098 96.1543 70.0293 96.1543 66.0684C96.1543 64.1348 95.8555 62.6875 95.2578 61.7266C94.6719 60.7539 93.7461 60.2676 92.4805 60.2676ZM110.322 66.1387C110.322 68.084 110.639 69.5547 111.271 70.5508C111.916 71.5469 112.959 72.0449 114.4 72.0449C115.83 72.0449 116.855 71.5527 117.477 70.5684C118.109 69.5723 118.426 68.0957 118.426 66.1387C118.426 64.1934 118.109 62.7344 117.477 61.7617C116.844 60.7891 115.807 60.3027 114.365 60.3027C112.936 60.3027 111.904 60.7891 111.271 61.7617C110.639 62.7227 110.322 64.1816 110.322 66.1387ZM123.91 66.1387C123.91 69.3379 123.066 71.8398 121.379 73.6445C119.691 75.4492 117.342 76.3516 114.33 76.3516C112.443 76.3516 110.779 75.9414 109.338 75.1211C107.896 74.2891 106.789 73.0996 106.016 71.5527C105.242 70.0059 104.855 68.2012 104.855 66.1387C104.855 62.9277 105.693 60.4316 107.369 58.6504C109.045 56.8691 111.4 55.9785 114.436 55.9785C116.322 55.9785 117.986 56.3887 119.428 57.209C120.869 58.0293 121.977 59.207 122.75 60.7422C123.523 62.2773 123.91 64.0762 123.91 66.1387ZM143.914 76.3516C141.605 76.3516 139.789 75.4551 138.465 73.6621C137.152 71.8691 136.496 69.3848 136.496 66.209C136.496 62.9863 137.164 60.4785 138.5 58.6855C139.848 56.8809 141.699 55.9785 144.055 55.9785C146.527 55.9785 148.414 56.9395 149.715 58.8613H149.891C149.621 57.3965 149.486 56.0898 149.486 54.9414V48.6484H154.865V76H150.752L149.715 73.4512H149.486C148.268 75.3848 146.41 76.3516 143.914 76.3516ZM145.795 72.0801C147.166 72.0801 148.168 71.6816 148.801 70.8848C149.445 70.0879 149.797 68.7344 149.855 66.8242V66.2441C149.855 64.1348 149.527 62.623 148.871 61.709C148.227 60.7949 147.172 60.3379 145.707 60.3379C144.512 60.3379 143.58 60.8477 142.912 61.8672C142.256 62.875 141.928 64.3457 141.928 66.2793C141.928 68.2129 142.262 69.666 142.93 70.6387C143.598 71.5996 144.553 72.0801 145.795 72.0801ZM168.611 59.793C167.475 59.793 166.584 60.1562 165.939 60.8828C165.295 61.5977 164.926 62.6172 164.832 63.9414H172.355C172.332 62.6172 171.986 61.5977 171.318 60.8828C170.65 60.1562 169.748 59.793 168.611 59.793ZM169.367 76.3516C166.203 76.3516 163.73 75.4785 161.949 73.7324C160.168 71.9863 159.277 69.5137 159.277 66.3145C159.277 63.0215 160.098 60.4785 161.738 58.6855C163.391 56.8809 165.67 55.9785 168.576 55.9785C171.354 55.9785 173.516 56.7695 175.062 58.3516C176.609 59.9336 177.383 62.1191 177.383 64.9082V67.5098H164.709C164.768 69.0332 165.219 70.2227 166.062 71.0781C166.906 71.9336 168.09 72.3613 169.613 72.3613C170.797 72.3613 171.916 72.2383 172.971 71.9922C174.025 71.7461 175.127 71.3535 176.275 70.8145V74.9629C175.338 75.4316 174.336 75.7773 173.27 76C172.203 76.2344 170.902 76.3516 169.367 76.3516ZM195.77 76L188.281 56.3477H193.889L197.686 67.5449C198.107 68.9629 198.371 70.3047 198.477 71.5703H198.582C198.641 70.4453 198.904 69.1035 199.373 67.5449L203.152 56.3477H208.76L201.271 76H195.77ZM211.361 51.2676C211.361 49.5215 212.334 48.6484 214.279 48.6484C216.225 48.6484 217.197 49.5215 217.197 51.2676C217.197 52.0996 216.951 52.75 216.459 53.2188C215.979 53.6758 215.252 53.9043 214.279 53.9043C212.334 53.9043 211.361 53.0254 211.361 51.2676ZM216.951 76H211.59V56.3477H216.951V76ZM236.305 70.1641C236.305 72.1797 235.602 73.7148 234.195 74.7695C232.801 75.8242 230.709 76.3516 227.92 76.3516C226.49 76.3516 225.271 76.252 224.264 76.0527C223.256 75.8652 222.312 75.584 221.434 75.209V70.7793C222.43 71.248 223.549 71.6406 224.791 71.957C226.045 72.2734 227.146 72.4316 228.096 72.4316C230.041 72.4316 231.014 71.8691 231.014 70.7441C231.014 70.3223 230.885 69.9824 230.627 69.7246C230.369 69.4551 229.924 69.1562 229.291 68.8281C228.658 68.4883 227.814 68.0957 226.76 67.6504C225.248 67.0176 224.135 66.4316 223.42 65.8926C222.717 65.3535 222.201 64.7383 221.873 64.0469C221.557 63.3438 221.398 62.4824 221.398 61.4629C221.398 59.7168 222.072 58.3691 223.42 57.4199C224.779 56.459 226.701 55.9785 229.186 55.9785C231.553 55.9785 233.855 56.4941 236.094 57.5254L234.477 61.3926C233.492 60.9707 232.572 60.625 231.717 60.3555C230.861 60.0859 229.988 59.9512 229.098 59.9512C227.516 59.9512 226.725 60.3789 226.725 61.2344C226.725 61.7148 226.977 62.1309 227.48 62.4824C227.996 62.834 229.115 63.3555 230.838 64.0469C232.373 64.668 233.498 65.248 234.213 65.7871C234.928 66.3262 235.455 66.9473 235.795 67.6504C236.135 68.3535 236.305 69.1914 236.305 70.1641ZM240.26 51.2676C240.26 49.5215 241.232 48.6484 243.178 48.6484C245.123 48.6484 246.096 49.5215 246.096 51.2676C246.096 52.0996 245.85 52.75 245.357 53.2188C244.877 53.6758 244.15 53.9043 243.178 53.9043C241.232 53.9043 240.26 53.0254 240.26 51.2676ZM245.85 76H240.488V56.3477H245.85V76ZM255.764 66.1387C255.764 68.084 256.08 69.5547 256.713 70.5508C257.357 71.5469 258.4 72.0449 259.842 72.0449C261.271 72.0449 262.297 71.5527 262.918 70.5684C263.551 69.5723 263.867 68.0957 263.867 66.1387C263.867 64.1934 263.551 62.7344 262.918 61.7617C262.285 60.7891 261.248 60.3027 259.807 60.3027C258.377 60.3027 257.346 60.7891 256.713 61.7617C256.08 62.7227 255.764 64.1816 255.764 66.1387ZM269.352 66.1387C269.352 69.3379 268.508 71.8398 266.82 73.6445C265.133 75.4492 262.783 76.3516 259.771 76.3516C257.885 76.3516 256.221 75.9414 254.779 75.1211C253.338 74.2891 252.23 73.0996 251.457 71.5527C250.684 70.0059 250.297 68.2012 250.297 66.1387C250.297 62.9277 251.135 60.4316 252.811 58.6504C254.486 56.8691 256.842 55.9785 259.877 55.9785C261.764 55.9785 263.428 56.3887 264.869 57.209C266.311 58.0293 267.418 59.207 268.191 60.7422C268.965 62.2773 269.352 64.0762 269.352 66.1387ZM256.889 54.1855V53.7109C258.904 51.3672 260.281 49.6035 261.02 48.4199H267.031V48.7891C266.422 49.3984 265.379 50.3066 263.902 51.5137C262.438 52.709 261.289 53.5996 260.457 54.1855H256.889ZM291.922 76H286.561V64.5215C286.561 63.1035 286.309 62.043 285.805 61.3398C285.301 60.625 284.498 60.2676 283.396 60.2676C281.896 60.2676 280.812 60.7715 280.145 61.7793C279.477 62.7754 279.143 64.4336 279.143 66.7539V76H273.781V56.3477H277.877L278.598 58.8613H278.896C279.494 57.9121 280.314 57.1973 281.357 56.7168C282.412 56.2246 283.607 55.9785 284.943 55.9785C287.229 55.9785 288.963 56.5996 290.146 57.8418C291.33 59.0723 291.922 60.8535 291.922 63.1855V76Z" fill="#5F5F5F"/>
<path d="M198.984 418.963L192.656 409.348H198.738L202.553 415.605L206.402 409.348H212.484L206.086 418.963L212.783 429H206.684L202.553 422.268L198.404 429H192.322L198.984 418.963ZM230.906 429H225.545V403.301H240.275V407.766H230.906V414.393H239.625V418.84H230.906V429ZM249.152 419.139C249.152 421.084 249.469 422.555 250.102 423.551C250.746 424.547 251.789 425.045 253.23 425.045C254.66 425.045 255.686 424.553 256.307 423.568C256.939 422.572 257.256 421.096 257.256 419.139C257.256 417.193 256.939 415.734 256.307 414.762C255.674 413.789 254.637 413.303 253.195 413.303C251.766 413.303 250.734 413.789 250.102 414.762C249.469 415.723 249.152 417.182 249.152 419.139ZM262.74 419.139C262.74 422.338 261.896 424.84 260.209 426.645C258.521 428.449 256.172 429.352 253.16 429.352C251.273 429.352 249.609 428.941 248.168 428.121C246.727 427.289 245.619 426.1 244.846 424.553C244.072 423.006 243.686 421.201 243.686 419.139C243.686 415.928 244.523 413.432 246.199 411.65C247.875 409.869 250.23 408.979 253.266 408.979C255.152 408.979 256.816 409.389 258.258 410.209C259.699 411.029 260.807 412.207 261.58 413.742C262.354 415.277 262.74 417.076 262.74 419.139ZM271.846 429L264.357 409.348H269.965L273.762 420.545C274.184 421.963 274.447 423.305 274.553 424.57H274.658C274.717 423.445 274.98 422.104 275.449 420.545L279.229 409.348H284.836L277.348 429H271.846Z" fill="#5F5F5F"/>
<path d="M258.305 526.348H264.176L267.885 537.404C268.201 538.365 268.418 539.502 268.535 540.814H268.641C268.77 539.607 269.021 538.471 269.396 537.404L273.035 526.348H278.783L270.469 548.514C269.707 550.564 268.617 552.1 267.199 553.119C265.793 554.139 264.146 554.648 262.26 554.648C261.334 554.648 260.426 554.549 259.535 554.35V550.096C260.18 550.248 260.883 550.324 261.645 550.324C262.594 550.324 263.42 550.031 264.123 549.445C264.838 548.871 265.395 547.998 265.793 546.826L266.109 545.859L258.305 526.348ZM296.748 546H291.387V520.301H306.117V524.766H296.748V531.393H305.467V535.84H296.748V546ZM314.994 536.139C314.994 538.084 315.311 539.555 315.943 540.551C316.588 541.547 317.631 542.045 319.072 542.045C320.502 542.045 321.527 541.553 322.148 540.568C322.781 539.572 323.098 538.096 323.098 536.139C323.098 534.193 322.781 532.734 322.148 531.762C321.516 530.789 320.479 530.303 319.037 530.303C317.607 530.303 316.576 530.789 315.943 531.762C315.311 532.723 314.994 534.182 314.994 536.139ZM328.582 536.139C328.582 539.338 327.738 541.84 326.051 543.645C324.363 545.449 322.014 546.352 319.002 546.352C317.115 546.352 315.451 545.941 314.01 545.121C312.568 544.289 311.461 543.1 310.688 541.553C309.914 540.006 309.527 538.201 309.527 536.139C309.527 532.928 310.365 530.432 312.041 528.65C313.717 526.869 316.072 525.979 319.107 525.979C320.994 525.979 322.658 526.389 324.1 527.209C325.541 528.029 326.648 529.207 327.422 530.742C328.195 532.277 328.582 534.076 328.582 536.139ZM337.688 546L330.199 526.348H335.807L339.604 537.545C340.025 538.963 340.289 540.305 340.395 541.57H340.5C340.559 540.445 340.822 539.104 341.291 537.545L345.07 526.348H350.678L343.189 546H337.688Z" fill="#5F5F5F"/>
<path d="M307.779 97.8913C306.586 97.1968 305.039 97.5916 304.325 98.7732C303.611 99.9548 303.999 101.476 305.192 102.17L307.779 97.8913ZM402.683 17.1257C403.869 17.8331 405.419 17.4548 406.146 16.2808C406.874 15.1068 406.502 13.5816 405.317 12.8742L402.683 17.1257ZM385.575 15.7779L383.415 14.5202L385.575 15.7779ZM383.415 14.5202L330.331 102.342L334.652 104.857L387.736 17.0355L383.415 14.5202ZM319.97 104.987L307.779 97.8913L305.192 102.17L317.383 109.266L319.97 104.987ZM398.168 14.4312L402.683 17.1257L405.317 12.8742L400.801 10.1797L398.168 14.4312ZM330.331 102.342C328.188 105.886 323.549 107.071 319.97 104.987L317.383 109.266C323.35 112.739 331.081 110.765 334.652 104.857L330.331 102.342ZM387.736 17.0355C389.895 13.4634 394.584 12.2928 398.168 14.4312L400.801 10.1797C394.828 6.61576 387.013 8.56674 383.415 14.5202L387.736 17.0355Z" fill="#5F5F5F"/>
<path d="M298.209 98.1407C297.015 97.4473 296.625 95.9267 297.338 94.7444C298.051 93.5621 299.597 93.1658 300.791 93.8593L298.209 98.1407ZM278.37 223.407C279.537 224.144 279.869 225.678 279.113 226.834C278.356 227.99 276.797 228.33 275.63 227.593L278.37 223.407ZM322.141 120.724L319.981 119.466L322.141 120.724ZM318.663 107.13L319.955 104.989L318.663 107.13ZM266.663 207.675L319.981 119.466L324.302 121.981L270.984 210.19L266.663 207.675ZM317.372 109.271L298.209 98.1407L300.791 93.8593L319.955 104.989L317.372 109.271ZM273.356 220.242L278.37 223.407L275.63 227.593L270.616 224.428L273.356 220.242ZM319.981 119.466C322.125 115.919 320.956 111.353 317.372 109.271L319.955 104.989C325.928 108.459 327.875 116.069 324.302 121.981L319.981 119.466ZM270.984 210.19C268.896 213.645 269.944 218.088 273.356 220.242L270.616 224.428C264.929 220.838 263.182 213.433 266.663 207.675L270.984 210.19Z" fill="#5F5F5F"/>
<path d="M298.338 103.657C298.369 104.574 297.173 104.977 296.765 104.187L288.568 90.6819C288.36 90.34 288.618 89.9049 289.018 89.923L304.763 90.6347C305.652 90.5873 305.908 91.8216 305.099 92.2584C300.729 94.6199 298.171 98.6982 298.338 103.657Z" fill="#5F5F5F"/>
<path d="M362.616 431.85C363.389 432.344 364.346 431.522 363.875 430.767L356.441 416.827C356.253 416.474 355.747 416.474 355.559 416.827L348.138 430.732C347.644 431.473 348.575 432.322 349.363 431.85C353.624 429.296 358.436 429.177 362.616 431.85Z" fill="#5F5F5F"/>
<path d="M349.384 552.15C348.611 551.656 347.654 552.478 348.125 553.233L355.559 567.173C355.747 567.526 356.253 567.526 356.441 567.173L363.862 553.268C364.356 552.527 363.425 551.678 362.637 552.15C358.376 554.704 353.564 554.823 349.384 552.15Z" fill="#5F5F5F"/>
<path d="M358.48 421.5C358.48 420.119 357.36 419 355.98 419C354.599 419 353.48 420.119 353.48 421.5L358.48 421.5ZM353.48 554.293C353.48 555.674 354.6 556.793 355.98 556.793C357.361 556.793 358.48 555.674 358.48 554.293L353.48 554.293ZM353.48 421.5L353.48 554.293L358.48 554.293L358.48 421.5L353.48 421.5Z" fill="#5F5F5F"/>
<path d="M338.023 414.643C337.368 415.286 337.957 416.403 338.797 416.112L354.045 411.978C354.431 411.873 354.544 411.38 354.242 411.118L342.344 400.78C341.733 400.133 340.697 400.851 340.982 401.725C342.52 406.448 341.562 411.165 338.023 414.643Z" fill="#5F5F5F"/>
<path d="M207.713 369.888C208.368 369.244 207.779 368.128 206.939 368.419L191.691 372.553C191.305 372.657 191.192 373.151 191.494 373.413L203.391 383.75C204.003 384.398 205.039 383.68 204.754 382.806C203.216 378.083 204.174 373.365 207.713 369.888Z" fill="#5F5F5F"/>
<path d="M349.025 412.919C350.37 413.233 351.714 412.397 352.028 411.052C352.341 409.708 351.505 408.363 350.16 408.05L349.025 412.919ZM197.769 372.529C196.425 372.216 195.08 373.052 194.767 374.396C194.454 375.741 195.29 377.085 196.634 377.399L197.769 372.529ZM350.16 408.05L197.769 372.529L196.634 377.399L349.025 412.919L350.16 408.05Z" fill="#5F5F5F"/>
</svg>
