<svg width="345" height="245" viewBox="0 0 345 245" fill="none" xmlns="http://www.w3.org/2000/svg">
<rect x="0.5" y="43.5" width="344" height="87" rx="7.5" fill="#8062BD" fill-opacity="0.08" stroke="#8062BD" stroke-dasharray="2 2"/>
<path d="M270.637 54.8652C270.637 55.2572 270.5 55.5557 270.227 55.7607C269.955 55.9658 269.549 56.0684 269.006 56.0684C268.728 56.0684 268.491 56.049 268.295 56.0103C268.099 55.9738 267.916 55.9191 267.745 55.8462V54.9849C267.939 55.076 268.156 55.1523 268.398 55.2139C268.642 55.2754 268.856 55.3062 269.041 55.3062C269.419 55.3062 269.608 55.1968 269.608 54.978C269.608 54.896 269.583 54.8299 269.533 54.7798C269.483 54.7274 269.396 54.6693 269.273 54.6055C269.15 54.5394 268.986 54.4631 268.781 54.3765C268.487 54.2534 268.27 54.1395 268.131 54.0347C267.995 53.9299 267.894 53.8102 267.831 53.6758C267.769 53.5391 267.738 53.3716 267.738 53.1733C267.738 52.8338 267.869 52.5718 268.131 52.3872C268.396 52.2004 268.769 52.1069 269.252 52.1069C269.713 52.1069 270.16 52.2072 270.596 52.4077L270.281 53.1597C270.09 53.0776 269.911 53.0104 269.745 52.958C269.578 52.9056 269.409 52.8794 269.235 52.8794C268.928 52.8794 268.774 52.9626 268.774 53.1289C268.774 53.2223 268.823 53.3032 268.921 53.3716C269.021 53.4399 269.239 53.5413 269.574 53.6758C269.872 53.7965 270.091 53.9093 270.23 54.0142C270.369 54.119 270.472 54.2397 270.538 54.3765C270.604 54.5132 270.637 54.6761 270.637 54.8652ZM273.002 56.0684C271.812 56.0684 271.218 55.4155 271.218 54.1099C271.218 53.4604 271.38 52.9648 271.703 52.623C272.027 52.279 272.49 52.1069 273.094 52.1069C273.536 52.1069 273.933 52.1935 274.284 52.3667L273.976 53.1733C273.812 53.1073 273.659 53.0537 273.518 53.0127C273.377 52.9694 273.236 52.9478 273.094 52.9478C272.552 52.9478 272.281 53.3328 272.281 54.103C272.281 54.8504 272.552 55.2241 273.094 55.2241C273.295 55.2241 273.48 55.1979 273.651 55.1455C273.822 55.0908 273.993 55.0065 274.164 54.8926V55.7847C273.995 55.8918 273.825 55.9658 273.651 56.0068C273.48 56.0479 273.264 56.0684 273.002 56.0684ZM276.635 52.8486C276.414 52.8486 276.241 52.9193 276.116 53.0605C275.99 53.1995 275.919 53.3978 275.9 53.6553H277.363C277.359 53.3978 277.292 53.1995 277.162 53.0605C277.032 52.9193 276.856 52.8486 276.635 52.8486ZM276.782 56.0684C276.167 56.0684 275.686 55.8986 275.34 55.5591C274.993 55.2196 274.82 54.7388 274.82 54.1167C274.82 53.4764 274.98 52.9819 275.299 52.6333C275.62 52.2824 276.063 52.1069 276.628 52.1069C277.168 52.1069 277.589 52.2607 277.89 52.5684C278.19 52.876 278.341 53.3009 278.341 53.8433V54.3491H275.876C275.888 54.6453 275.976 54.8766 276.14 55.043C276.304 55.2093 276.534 55.2925 276.83 55.2925C277.06 55.2925 277.278 55.2686 277.483 55.2207C277.688 55.1729 277.902 55.0965 278.125 54.9917V55.7983C277.943 55.8895 277.748 55.9567 277.541 56C277.334 56.0456 277.081 56.0684 276.782 56.0684ZM282.716 56H281.673V53.7681C281.673 53.4924 281.624 53.2861 281.526 53.1494C281.428 53.0104 281.272 52.9409 281.058 52.9409C280.766 52.9409 280.556 53.0389 280.426 53.2349C280.296 53.4285 280.231 53.751 280.231 54.2021V56H279.188V52.1787H279.985L280.125 52.6675H280.183C280.299 52.4829 280.459 52.3439 280.662 52.2505C280.867 52.1548 281.099 52.1069 281.359 52.1069C281.803 52.1069 282.14 52.2277 282.371 52.4692C282.601 52.7085 282.716 53.0549 282.716 53.5083V56ZM285.372 52.8486C285.151 52.8486 284.977 52.9193 284.852 53.0605C284.727 53.1995 284.655 53.3978 284.637 53.6553H286.1C286.095 53.3978 286.028 53.1995 285.898 53.0605C285.768 52.9193 285.593 52.8486 285.372 52.8486ZM285.519 56.0684C284.903 56.0684 284.423 55.8986 284.076 55.5591C283.73 55.2196 283.557 54.7388 283.557 54.1167C283.557 53.4764 283.716 52.9819 284.035 52.6333C284.356 52.2824 284.8 52.1069 285.365 52.1069C285.905 52.1069 286.325 52.2607 286.626 52.5684C286.927 52.876 287.077 53.3009 287.077 53.8433V54.3491H284.613C284.624 54.6453 284.712 54.8766 284.876 55.043C285.04 55.2093 285.27 55.2925 285.566 55.2925C285.797 55.2925 286.014 55.2686 286.219 55.2207C286.424 55.1729 286.639 55.0965 286.862 54.9917V55.7983C286.68 55.8895 286.485 55.9567 286.277 56C286.07 56.0456 285.817 56.0684 285.519 56.0684ZM293.069 52.1787V52.7085L292.471 52.8623C292.58 53.0332 292.635 53.2246 292.635 53.4365C292.635 53.8467 292.491 54.1668 292.204 54.397C291.919 54.6248 291.523 54.7388 291.015 54.7388L290.827 54.7285L290.673 54.7114C290.566 54.7935 290.512 54.8846 290.512 54.9849C290.512 55.1353 290.704 55.2104 291.086 55.2104H291.736C292.155 55.2104 292.474 55.3005 292.693 55.4805C292.914 55.6605 293.024 55.9248 293.024 56.2734C293.024 56.7201 292.838 57.0664 292.464 57.3125C292.092 57.5586 291.558 57.6816 290.861 57.6816C290.328 57.6816 289.92 57.5882 289.637 57.4014C289.357 57.2168 289.217 56.957 289.217 56.6221C289.217 56.3919 289.289 56.1994 289.432 56.0444C289.576 55.8895 289.786 55.779 290.064 55.7129C289.957 55.6673 289.864 55.5933 289.784 55.4907C289.704 55.3859 289.665 55.2754 289.665 55.1592C289.665 55.0133 289.707 54.8926 289.791 54.7969C289.875 54.6989 289.997 54.6032 290.157 54.5098C289.956 54.4232 289.797 54.2842 289.678 54.0928C289.562 53.9014 289.504 53.6758 289.504 53.416C289.504 52.999 289.639 52.6766 289.911 52.4487C290.182 52.2209 290.569 52.1069 291.073 52.1069C291.18 52.1069 291.306 52.1172 291.452 52.1377C291.6 52.1559 291.695 52.1696 291.736 52.1787H293.069ZM290.119 56.54C290.119 56.6836 290.188 56.7964 290.324 56.8784C290.463 56.9604 290.657 57.0015 290.905 57.0015C291.279 57.0015 291.572 56.9502 291.784 56.8477C291.996 56.7451 292.102 56.605 292.102 56.4272C292.102 56.2837 292.039 56.1846 291.914 56.1299C291.788 56.0752 291.595 56.0479 291.333 56.0479H290.792C290.601 56.0479 290.44 56.0923 290.311 56.1812C290.183 56.2723 290.119 56.3919 290.119 56.54ZM290.499 53.4297C290.499 53.637 290.545 53.8011 290.639 53.9219C290.734 54.0426 290.879 54.103 291.073 54.103C291.269 54.103 291.412 54.0426 291.503 53.9219C291.595 53.8011 291.64 53.637 291.64 53.4297C291.64 52.9694 291.451 52.7393 291.073 52.7393C290.69 52.7393 290.499 52.9694 290.499 53.4297ZM295.834 52.1069C295.975 52.1069 296.093 52.1172 296.186 52.1377L296.107 53.1152C296.023 53.0924 295.921 53.0811 295.8 53.0811C295.467 53.0811 295.207 53.1665 295.021 53.3374C294.836 53.5083 294.744 53.7476 294.744 54.0552V56H293.701V52.1787H294.491L294.645 52.8213H294.696C294.814 52.6071 294.974 52.4351 295.174 52.3052C295.377 52.173 295.597 52.1069 295.834 52.1069ZM299.307 56L299.105 55.4805H299.078C298.902 55.7015 298.721 55.8553 298.534 55.9419C298.35 56.0262 298.108 56.0684 297.81 56.0684C297.443 56.0684 297.153 55.9635 296.941 55.7539C296.732 55.5443 296.627 55.2458 296.627 54.8584C296.627 54.4528 296.768 54.1543 297.051 53.9629C297.336 53.7692 297.764 53.6621 298.336 53.6416L298.999 53.6211V53.4536C298.999 53.0662 298.801 52.8726 298.404 52.8726C298.099 52.8726 297.74 52.9648 297.328 53.1494L296.982 52.4453C297.422 52.2152 297.91 52.1001 298.445 52.1001C298.958 52.1001 299.351 52.2118 299.625 52.4351C299.898 52.6584 300.035 52.9979 300.035 53.4536V56H299.307ZM298.999 54.2295L298.596 54.2432C298.293 54.2523 298.067 54.307 297.919 54.4072C297.771 54.5075 297.697 54.6602 297.697 54.8652C297.697 55.1592 297.865 55.3062 298.203 55.3062C298.444 55.3062 298.637 55.2367 298.78 55.0977C298.926 54.9587 298.999 54.7741 298.999 54.5439V54.2295ZM303.21 56.0684C302.761 56.0684 302.409 55.9054 302.154 55.5796H302.099C302.136 55.8986 302.154 56.0832 302.154 56.1333V57.6816H301.111V52.1787H301.959L302.106 52.6743H302.154C302.398 52.2961 302.759 52.1069 303.237 52.1069C303.688 52.1069 304.042 52.2812 304.297 52.6299C304.552 52.9785 304.68 53.4627 304.68 54.0825C304.68 54.4904 304.619 54.8447 304.499 55.1455C304.38 55.4463 304.21 55.6753 303.989 55.8325C303.768 55.9897 303.508 56.0684 303.21 56.0684ZM302.902 52.9409C302.645 52.9409 302.457 53.0207 302.338 53.1802C302.22 53.3374 302.158 53.5983 302.154 53.9629V54.0757C302.154 54.4858 302.214 54.7798 302.335 54.9575C302.458 55.1353 302.652 55.2241 302.916 55.2241C303.383 55.2241 303.617 54.839 303.617 54.0688C303.617 53.6929 303.559 53.4115 303.442 53.2246C303.328 53.0355 303.148 52.9409 302.902 52.9409ZM309.068 56H308.026V53.7681C308.026 53.2166 307.821 52.9409 307.411 52.9409C307.119 52.9409 306.908 53.04 306.778 53.2383C306.648 53.4365 306.583 53.7578 306.583 54.2021V56H305.541V50.6816H306.583V51.7651C306.583 51.8494 306.576 52.0477 306.56 52.3599L306.536 52.6675H306.59C306.823 52.2938 307.192 52.1069 307.698 52.1069C308.147 52.1069 308.487 52.2277 308.72 52.4692C308.952 52.7108 309.068 53.0571 309.068 53.5083V56ZM312.791 54.0825C312.791 54.4608 312.852 54.7467 312.975 54.9404C313.1 55.1341 313.303 55.231 313.583 55.231C313.861 55.231 314.061 55.1353 314.182 54.9438C314.305 54.7502 314.366 54.4631 314.366 54.0825C314.366 53.7043 314.305 53.4206 314.182 53.2314C314.059 53.0423 313.857 52.9478 313.577 52.9478C313.299 52.9478 313.098 53.0423 312.975 53.2314C312.852 53.4183 312.791 53.702 312.791 54.0825ZM315.433 54.0825C315.433 54.7046 315.269 55.1911 314.94 55.542C314.612 55.8929 314.155 56.0684 313.57 56.0684C313.203 56.0684 312.879 55.9886 312.599 55.8291C312.319 55.6673 312.104 55.436 311.953 55.1353C311.803 54.8345 311.728 54.4836 311.728 54.0825C311.728 53.4582 311.89 52.9728 312.216 52.6265C312.542 52.2801 313 52.1069 313.59 52.1069C313.957 52.1069 314.281 52.1867 314.561 52.3462C314.841 52.5057 315.057 52.7347 315.207 53.0332C315.357 53.3317 315.433 53.6815 315.433 54.0825ZM318.42 52.1069C318.871 52.1069 319.224 52.2835 319.479 52.6367C319.735 52.9876 319.862 53.4696 319.862 54.0825C319.862 54.7137 319.73 55.2025 319.466 55.5488C319.204 55.8952 318.846 56.0684 318.393 56.0684C317.944 56.0684 317.592 55.9054 317.336 55.5796H317.265L317.09 56H316.294V50.6816H317.336V51.9189C317.336 52.0762 317.323 52.328 317.295 52.6743H317.336C317.58 52.2961 317.941 52.1069 318.42 52.1069ZM318.085 52.9409C317.827 52.9409 317.639 53.0207 317.521 53.1802C317.403 53.3374 317.341 53.5983 317.336 53.9629V54.0757C317.336 54.4858 317.397 54.7798 317.518 54.9575C317.641 55.1353 317.834 55.2241 318.099 55.2241C318.313 55.2241 318.483 55.1261 318.608 54.9302C318.736 54.7319 318.799 54.4448 318.799 54.0688C318.799 53.6929 318.736 53.4115 318.608 53.2246C318.48 53.0355 318.306 52.9409 318.085 52.9409ZM320.416 57.6816C320.149 57.6816 319.92 57.6532 319.729 57.5962V56.7759C319.889 56.8192 320.051 56.8408 320.218 56.8408C320.393 56.8408 320.521 56.7918 320.601 56.6938C320.683 56.5959 320.724 56.4512 320.724 56.2598V52.1787H321.766V56.4136C321.766 56.8192 321.649 57.1313 321.414 57.3501C321.179 57.5711 320.847 57.6816 320.416 57.6816ZM320.679 51.1909C320.679 50.8514 320.868 50.6816 321.247 50.6816C321.625 50.6816 321.814 50.8514 321.814 51.1909C321.814 51.3527 321.766 51.4792 321.67 51.5703C321.577 51.6592 321.436 51.7036 321.247 51.7036C320.868 51.7036 320.679 51.5327 320.679 51.1909ZM324.446 52.8486C324.225 52.8486 324.052 52.9193 323.926 53.0605C323.801 53.1995 323.729 53.3978 323.711 53.6553H325.174C325.169 53.3978 325.102 53.1995 324.972 53.0605C324.842 52.9193 324.667 52.8486 324.446 52.8486ZM324.593 56.0684C323.978 56.0684 323.497 55.8986 323.15 55.5591C322.804 55.2196 322.631 54.7388 322.631 54.1167C322.631 53.4764 322.79 52.9819 323.109 52.6333C323.431 52.2824 323.874 52.1069 324.439 52.1069C324.979 52.1069 325.399 52.2607 325.7 52.5684C326.001 52.876 326.151 53.3009 326.151 53.8433V54.3491H323.687C323.698 54.6453 323.786 54.8766 323.95 55.043C324.114 55.2093 324.344 55.2925 324.641 55.2925C324.871 55.2925 325.088 55.2686 325.293 55.2207C325.499 55.1729 325.713 55.0965 325.936 54.9917V55.7983C325.754 55.8895 325.559 55.9567 325.352 56C325.144 56.0456 324.891 56.0684 324.593 56.0684ZM328.551 56.0684C327.361 56.0684 326.767 55.4155 326.767 54.1099C326.767 53.4604 326.928 52.9648 327.252 52.623C327.576 52.279 328.039 52.1069 328.643 52.1069C329.085 52.1069 329.482 52.1935 329.833 52.3667L329.525 53.1733C329.361 53.1073 329.208 53.0537 329.067 53.0127C328.926 52.9694 328.784 52.9478 328.643 52.9478C328.101 52.9478 327.83 53.3328 327.83 54.103C327.83 54.8504 328.101 55.2241 328.643 55.2241C328.844 55.2241 329.029 55.1979 329.2 55.1455C329.371 55.0908 329.542 55.0065 329.713 54.8926V55.7847C329.544 55.8918 329.373 55.9658 329.2 56.0068C329.029 56.0479 328.813 56.0684 328.551 56.0684ZM332.211 55.2378C332.394 55.2378 332.612 55.1979 332.868 55.1182V55.894C332.608 56.0103 332.289 56.0684 331.911 56.0684C331.494 56.0684 331.189 55.9635 330.998 55.7539C330.809 55.542 330.714 55.2253 330.714 54.8037V52.9614H330.215V52.5205L330.79 52.1719L331.09 51.3652H331.757V52.1787H332.827V52.9614H331.757V54.8037C331.757 54.9518 331.798 55.0612 331.88 55.1318C331.964 55.2025 332.075 55.2378 332.211 55.2378ZM336.31 54.8652C336.31 55.2572 336.173 55.5557 335.899 55.7607C335.628 55.9658 335.222 56.0684 334.679 56.0684C334.401 56.0684 334.164 56.049 333.968 56.0103C333.772 55.9738 333.589 55.9191 333.418 55.8462V54.9849C333.612 55.076 333.829 55.1523 334.071 55.2139C334.315 55.2754 334.529 55.3062 334.713 55.3062C335.092 55.3062 335.281 55.1968 335.281 54.978C335.281 54.896 335.256 54.8299 335.206 54.7798C335.155 54.7274 335.069 54.6693 334.946 54.6055C334.823 54.5394 334.659 54.4631 334.454 54.3765C334.16 54.2534 333.943 54.1395 333.804 54.0347C333.667 53.9299 333.567 53.8102 333.503 53.6758C333.442 53.5391 333.411 53.3716 333.411 53.1733C333.411 52.8338 333.542 52.5718 333.804 52.3872C334.069 52.2004 334.442 52.1069 334.925 52.1069C335.386 52.1069 335.833 52.2072 336.269 52.4077L335.954 53.1597C335.763 53.0776 335.584 53.0104 335.417 52.958C335.251 52.9056 335.081 52.8794 334.908 52.8794C334.601 52.8794 334.447 52.9626 334.447 53.1289C334.447 53.2223 334.496 53.3032 334.594 53.3716C334.694 53.4399 334.912 53.5413 335.247 53.6758C335.545 53.7965 335.764 53.9093 335.903 54.0142C336.042 54.119 336.144 54.2397 336.21 54.3765C336.277 54.5132 336.31 54.6761 336.31 54.8652Z" fill="#8062BD"/>
<rect x="61" y="1" width="80" height="20" rx="10" fill="white" stroke="#8062BD"/>
<path d="M79.0859 11.7344V15H78.1729V7.14746H80.3267C81.2899 7.14746 82.0007 7.33187 82.459 7.70068C82.9209 8.0695 83.1519 8.62451 83.1519 9.36572C83.1519 10.4041 82.6255 11.106 81.5728 11.4712L83.7051 15H82.6255L80.7241 11.7344H79.0859ZM79.0859 10.9502H80.3374C80.9819 10.9502 81.4546 10.8231 81.7554 10.5688C82.0562 10.311 82.2065 9.92611 82.2065 9.41406C82.2065 8.89486 82.0526 8.52067 81.7446 8.2915C81.4403 8.06234 80.9497 7.94775 80.2729 7.94775H79.0859V10.9502ZM87.3252 15.1074C86.4551 15.1074 85.7676 14.8424 85.2627 14.3125C84.7614 13.7826 84.5107 13.0467 84.5107 12.105C84.5107 11.1561 84.7435 10.4023 85.209 9.84375C85.6781 9.28516 86.3065 9.00586 87.0942 9.00586C87.8319 9.00586 88.4155 9.24935 88.8452 9.73633C89.2749 10.2197 89.4897 10.8589 89.4897 11.6538V12.2178H85.4346C85.4525 12.9089 85.6261 13.4334 85.9556 13.7915C86.2886 14.1496 86.7559 14.3286 87.3574 14.3286C87.9912 14.3286 88.6178 14.1961 89.2373 13.9312V14.7261C88.9222 14.8621 88.6232 14.9588 88.3403 15.0161C88.061 15.077 87.7227 15.1074 87.3252 15.1074ZM87.0835 9.75244C86.6108 9.75244 86.2331 9.90641 85.9502 10.2144C85.6709 10.5223 85.5062 10.9484 85.4561 11.4927H88.5337C88.5337 10.9305 88.4084 10.5008 88.1577 10.2036C87.9071 9.90283 87.549 9.75244 87.0835 9.75244ZM95.0435 15V11.1919C95.0435 10.7121 94.9342 10.354 94.7158 10.1177C94.4974 9.88135 94.1554 9.76318 93.6899 9.76318C93.0741 9.76318 92.6229 9.92969 92.3364 10.2627C92.05 10.5957 91.9067 11.1453 91.9067 11.9116V15H91.0151V9.11328H91.7402L91.8853 9.91895H91.9282C92.1108 9.62891 92.3669 9.40511 92.6963 9.24756C93.0257 9.08643 93.3927 9.00586 93.7974 9.00586C94.5063 9.00586 95.0399 9.17773 95.3979 9.52148C95.756 9.86165 95.9351 10.4077 95.9351 11.1597V15H95.0435ZM101.779 14.2104H101.73C101.319 14.8084 100.703 15.1074 99.8828 15.1074C99.113 15.1074 98.5132 14.8442 98.0835 14.3179C97.6574 13.7915 97.4443 13.0431 97.4443 12.0728C97.4443 11.1024 97.6592 10.3486 98.0889 9.81152C98.5186 9.27441 99.1165 9.00586 99.8828 9.00586C100.681 9.00586 101.294 9.2959 101.72 9.87598H101.79L101.752 9.45166L101.73 9.03809V6.64258H102.622V15H101.897L101.779 14.2104ZM99.9956 14.3608C100.604 14.3608 101.045 14.1961 101.317 13.8667C101.593 13.5337 101.73 12.9984 101.73 12.2607V12.0728C101.73 11.2384 101.591 10.644 101.312 10.2896C101.036 9.93148 100.594 9.75244 99.9849 9.75244C99.4621 9.75244 99.061 9.95654 98.7817 10.3647C98.506 10.7694 98.3682 11.3423 98.3682 12.0835C98.3682 12.8354 98.506 13.403 98.7817 13.7861C99.0575 14.1693 99.4621 14.3608 99.9956 14.3608ZM107.005 15.1074C106.135 15.1074 105.447 14.8424 104.942 14.3125C104.441 13.7826 104.19 13.0467 104.19 12.105C104.19 11.1561 104.423 10.4023 104.889 9.84375C105.358 9.28516 105.986 9.00586 106.774 9.00586C107.512 9.00586 108.095 9.24935 108.525 9.73633C108.955 10.2197 109.169 10.8589 109.169 11.6538V12.2178H105.114C105.132 12.9089 105.306 13.4334 105.635 13.7915C105.968 14.1496 106.436 14.3286 107.037 14.3286C107.671 14.3286 108.298 14.1961 108.917 13.9312V14.7261C108.602 14.8621 108.303 14.9588 108.02 15.0161C107.741 15.077 107.402 15.1074 107.005 15.1074ZM106.763 9.75244C106.291 9.75244 105.913 9.90641 105.63 10.2144C105.351 10.5223 105.186 10.9484 105.136 11.4927H108.213C108.213 10.9305 108.088 10.5008 107.837 10.2036C107.587 9.90283 107.229 9.75244 106.763 9.75244ZM113.38 9.00586C113.642 9.00586 113.876 9.02734 114.084 9.07031L113.96 9.89746C113.717 9.84375 113.502 9.81689 113.316 9.81689C112.84 9.81689 112.431 10.0103 112.091 10.397C111.755 10.7837 111.586 11.2653 111.586 11.8418V15H110.695V9.11328H111.431L111.533 10.2036H111.576C111.794 9.82048 112.057 9.52507 112.365 9.31738C112.673 9.1097 113.012 9.00586 113.38 9.00586ZM117.672 15.1074C116.802 15.1074 116.114 14.8424 115.609 14.3125C115.108 13.7826 114.857 13.0467 114.857 12.105C114.857 11.1561 115.09 10.4023 115.556 9.84375C116.025 9.28516 116.653 9.00586 117.441 9.00586C118.179 9.00586 118.762 9.24935 119.192 9.73633C119.622 10.2197 119.836 10.8589 119.836 11.6538V12.2178H115.781C115.799 12.9089 115.973 13.4334 116.302 13.7915C116.635 14.1496 117.103 14.3286 117.704 14.3286C118.338 14.3286 118.965 14.1961 119.584 13.9312V14.7261C119.269 14.8621 118.97 14.9588 118.687 15.0161C118.408 15.077 118.069 15.1074 117.672 15.1074ZM117.43 9.75244C116.958 9.75244 116.58 9.90641 116.297 10.2144C116.018 10.5223 115.853 10.9484 115.803 11.4927H118.88C118.88 10.9305 118.755 10.5008 118.504 10.2036C118.254 9.90283 117.896 9.75244 117.43 9.75244ZM124.047 9.00586C124.309 9.00586 124.543 9.02734 124.751 9.07031L124.627 9.89746C124.384 9.84375 124.169 9.81689 123.983 9.81689C123.507 9.81689 123.098 10.0103 122.758 10.397C122.422 10.7837 122.253 11.2653 122.253 11.8418V15H121.362V9.11328H122.098L122.2 10.2036H122.243C122.461 9.82048 122.724 9.52507 123.032 9.31738C123.34 9.1097 123.679 9.00586 124.047 9.00586Z" fill="#8062BD"/>
<rect x="132" y="51" width="80" height="20" rx="10" fill="white" stroke="#8062BD"/>
<path d="M162.316 62.9106C162.316 63.6017 162.065 64.1406 161.564 64.5273C161.063 64.9141 160.382 65.1074 159.523 65.1074C158.592 65.1074 157.876 64.9875 157.375 64.7476V63.8667C157.697 64.0028 158.048 64.1102 158.427 64.189C158.807 64.2677 159.183 64.3071 159.555 64.3071C160.164 64.3071 160.622 64.1925 160.93 63.9634C161.238 63.7306 161.392 63.4084 161.392 62.9966C161.392 62.7244 161.337 62.5024 161.226 62.3306C161.118 62.1551 160.936 61.994 160.678 61.8472C160.424 61.7004 160.035 61.5339 159.512 61.3477C158.782 61.0863 158.259 60.7765 157.944 60.4185C157.632 60.0604 157.477 59.5931 157.477 59.0166C157.477 58.4115 157.704 57.9299 158.159 57.5718C158.613 57.2137 159.215 57.0347 159.963 57.0347C160.744 57.0347 161.462 57.1779 162.117 57.4644L161.833 58.2593C161.184 57.9871 160.554 57.8511 159.942 57.8511C159.458 57.8511 159.081 57.9549 158.809 58.1626C158.536 58.3703 158.4 58.6585 158.4 59.0273C158.4 59.2995 158.451 59.5233 158.551 59.6987C158.651 59.8706 158.819 60.0299 159.056 60.1768C159.296 60.32 159.661 60.4793 160.151 60.6548C160.975 60.9484 161.541 61.2635 161.849 61.6001C162.16 61.9367 162.316 62.3735 162.316 62.9106ZM166.14 65.1074C165.288 65.1074 164.627 64.846 164.158 64.3232C163.693 63.7969 163.46 63.0539 163.46 62.0942C163.46 61.1095 163.696 60.3486 164.169 59.8115C164.645 59.2744 165.322 59.0059 166.199 59.0059C166.482 59.0059 166.765 59.0363 167.048 59.0972C167.331 59.158 167.553 59.2297 167.714 59.312L167.44 60.0693C167.243 59.9906 167.028 59.9261 166.795 59.876C166.563 59.8223 166.357 59.7954 166.178 59.7954C164.982 59.7954 164.384 60.5581 164.384 62.0835C164.384 62.8068 164.529 63.3618 164.819 63.7485C165.112 64.1353 165.546 64.3286 166.119 64.3286C166.609 64.3286 167.112 64.223 167.628 64.0117V64.8013C167.234 65.0054 166.738 65.1074 166.14 65.1074ZM171.517 65.1074C170.646 65.1074 169.959 64.8424 169.454 64.3125C168.953 63.7826 168.702 63.0467 168.702 62.105C168.702 61.1561 168.935 60.4023 169.4 59.8438C169.869 59.2852 170.498 59.0059 171.286 59.0059C172.023 59.0059 172.607 59.2493 173.037 59.7363C173.466 60.2197 173.681 60.8589 173.681 61.6538V62.2178H169.626C169.644 62.9089 169.818 63.4334 170.147 63.7915C170.48 64.1496 170.947 64.3286 171.549 64.3286C172.183 64.3286 172.809 64.1961 173.429 63.9312V64.7261C173.114 64.8621 172.815 64.9588 172.532 65.0161C172.252 65.077 171.914 65.1074 171.517 65.1074ZM171.275 59.7524C170.802 59.7524 170.424 59.9064 170.142 60.2144C169.862 60.5223 169.698 60.9484 169.647 61.4927H172.725C172.725 60.9305 172.6 60.5008 172.349 60.2036C172.098 59.9028 171.74 59.7524 171.275 59.7524ZM179.235 65V61.1919C179.235 60.7121 179.126 60.354 178.907 60.1177C178.689 59.8813 178.347 59.7632 177.881 59.7632C177.265 59.7632 176.814 59.9297 176.528 60.2627C176.241 60.5957 176.098 61.1453 176.098 61.9116V65H175.207V59.1133H175.932L176.077 59.9189H176.12C176.302 59.6289 176.558 59.4051 176.888 59.2476C177.217 59.0864 177.584 59.0059 177.989 59.0059C178.698 59.0059 179.231 59.1777 179.589 59.5215C179.947 59.8617 180.126 60.4077 180.126 61.1597V65H179.235ZM184.45 65.1074C183.58 65.1074 182.893 64.8424 182.388 64.3125C181.886 63.7826 181.636 63.0467 181.636 62.105C181.636 61.1561 181.868 60.4023 182.334 59.8438C182.803 59.2852 183.431 59.0059 184.219 59.0059C184.957 59.0059 185.541 59.2493 185.97 59.7363C186.4 60.2197 186.615 60.8589 186.615 61.6538V62.2178H182.56C182.577 62.9089 182.751 63.4334 183.081 63.7915C183.414 64.1496 183.881 64.3286 184.482 64.3286C185.116 64.3286 185.743 64.1961 186.362 63.9312V64.7261C186.047 64.8621 185.748 64.9588 185.465 65.0161C185.186 65.077 184.848 65.1074 184.45 65.1074ZM184.208 59.7524C183.736 59.7524 183.358 59.9064 183.075 60.2144C182.796 60.5223 182.631 60.9484 182.581 61.4927H185.659C185.659 60.9305 185.533 60.5008 185.283 60.2036C185.032 59.9028 184.674 59.7524 184.208 59.7524Z" fill="#8062BD"/>
<rect x="12" y="102" width="80" height="20" rx="10" fill="white" stroke="#8062BD"/>
<path d="M36.397 108.851C35.534 108.851 34.8519 109.139 34.3506 109.716C33.8529 110.289 33.604 111.075 33.604 112.074C33.604 113.101 33.8439 113.896 34.3237 114.458C34.8071 115.017 35.4946 115.296 36.3862 115.296C36.9341 115.296 37.5589 115.198 38.2607 115.001V115.801C37.7165 116.005 37.0451 116.107 36.2466 116.107C35.09 116.107 34.1966 115.757 33.5664 115.055C32.9398 114.353 32.6265 113.356 32.6265 112.063C32.6265 111.254 32.7769 110.545 33.0776 109.936C33.382 109.327 33.8188 108.858 34.3882 108.529C34.9611 108.199 35.6343 108.035 36.4077 108.035C37.2313 108.035 37.951 108.185 38.5669 108.486L38.1802 109.27C37.5858 108.991 36.9914 108.851 36.397 108.851ZM43.46 116L43.2827 115.162H43.2397C42.9461 115.531 42.6525 115.782 42.3589 115.914C42.0688 116.043 41.7054 116.107 41.2686 116.107C40.6849 116.107 40.2266 115.957 39.8936 115.656C39.5641 115.355 39.3994 114.928 39.3994 114.373C39.3994 113.184 40.3501 112.561 42.2515 112.503L43.2505 112.471V112.106C43.2505 111.644 43.1502 111.304 42.9497 111.085C42.7528 110.863 42.4359 110.752 41.999 110.752C41.5085 110.752 40.9535 110.903 40.334 111.204L40.0601 110.521C40.3501 110.364 40.667 110.24 41.0107 110.151C41.3581 110.061 41.7054 110.017 42.0527 110.017C42.7546 110.017 43.2738 110.172 43.6104 110.484C43.9505 110.795 44.1206 111.295 44.1206 111.982V116H43.46ZM41.4458 115.372C42.0008 115.372 42.4359 115.219 42.751 114.915C43.0697 114.611 43.229 114.185 43.229 113.637V113.105L42.3374 113.143C41.6284 113.168 41.1164 113.279 40.8013 113.476C40.4897 113.669 40.334 113.972 40.334 114.383C40.334 114.706 40.4307 114.951 40.624 115.119C40.821 115.287 41.0949 115.372 41.4458 115.372ZM53.4663 116V112.17C53.4663 111.701 53.366 111.35 53.1655 111.118C52.965 110.881 52.6535 110.763 52.231 110.763C51.6759 110.763 51.266 110.923 51.001 111.241C50.736 111.56 50.6035 112.05 50.6035 112.713V116H49.7119V112.17C49.7119 111.701 49.6117 111.35 49.4111 111.118C49.2106 110.881 48.8973 110.763 48.4712 110.763C47.9126 110.763 47.5026 110.931 47.2412 111.268C46.9834 111.601 46.8545 112.149 46.8545 112.912V116H45.9629V110.113H46.688L46.833 110.919H46.876C47.0443 110.632 47.2806 110.409 47.585 110.248C47.8929 110.086 48.2367 110.006 48.6162 110.006C49.5365 110.006 50.138 110.339 50.4209 111.005H50.4639C50.6393 110.697 50.8936 110.453 51.2266 110.274C51.5596 110.095 51.9391 110.006 52.3652 110.006C53.0312 110.006 53.529 110.178 53.8584 110.521C54.1914 110.862 54.3579 111.408 54.3579 112.16V116H53.4663ZM58.687 116.107C57.8169 116.107 57.1294 115.842 56.6245 115.312C56.1232 114.783 55.8726 114.047 55.8726 113.105C55.8726 112.156 56.1053 111.402 56.5708 110.844C57.0399 110.285 57.6683 110.006 58.4561 110.006C59.1937 110.006 59.7773 110.249 60.207 110.736C60.6367 111.22 60.8516 111.859 60.8516 112.654V113.218H56.7964C56.8143 113.909 56.988 114.433 57.3174 114.792C57.6504 115.15 58.1177 115.329 58.7192 115.329C59.353 115.329 59.9797 115.196 60.5991 114.931V115.726C60.284 115.862 59.985 115.959 59.7021 116.016C59.4229 116.077 59.0845 116.107 58.687 116.107ZM58.4453 110.752C57.9727 110.752 57.5949 110.906 57.312 111.214C57.0327 111.522 56.868 111.948 56.8179 112.493H59.8955C59.8955 111.931 59.7702 111.501 59.5195 111.204C59.2689 110.903 58.9108 110.752 58.4453 110.752ZM65.0625 110.006C65.3239 110.006 65.5584 110.027 65.7661 110.07L65.6426 110.897C65.3991 110.844 65.1842 110.817 64.998 110.817C64.5218 110.817 64.1136 111.01 63.7734 111.397C63.4368 111.784 63.2686 112.265 63.2686 112.842V116H62.377V110.113H63.1128L63.2148 111.204H63.2578C63.4762 110.82 63.7394 110.525 64.0474 110.317C64.3553 110.11 64.6937 110.006 65.0625 110.006ZM70.4873 116L70.3101 115.162H70.2671C69.9735 115.531 69.6799 115.782 69.3862 115.914C69.0962 116.043 68.7327 116.107 68.2959 116.107C67.7122 116.107 67.2539 115.957 66.9209 115.656C66.5915 115.355 66.4268 114.928 66.4268 114.373C66.4268 113.184 67.3774 112.561 69.2788 112.503L70.2778 112.471V112.106C70.2778 111.644 70.1776 111.304 69.9771 111.085C69.7801 110.863 69.4632 110.752 69.0264 110.752C68.5358 110.752 67.9808 110.903 67.3613 111.204L67.0874 110.521C67.3774 110.364 67.6943 110.24 68.0381 110.151C68.3854 110.061 68.7327 110.017 69.0801 110.017C69.7819 110.017 70.3011 110.172 70.6377 110.484C70.9779 110.795 71.1479 111.295 71.1479 111.982V116H70.4873ZM68.4731 115.372C69.0282 115.372 69.4632 115.219 69.7783 114.915C70.097 114.611 70.2563 114.185 70.2563 113.637V113.105L69.3647 113.143C68.6558 113.168 68.1437 113.279 67.8286 113.476C67.5171 113.669 67.3613 113.972 67.3613 114.383C67.3613 114.706 67.458 114.951 67.6514 115.119C67.8483 115.287 68.1222 115.372 68.4731 115.372Z" fill="#8062BD"/>
<rect x="12" y="170" width="80" height="20" rx="10" fill="white" stroke="#8062BD"/>
<path d="M30.9453 179.886H33.6147V183.705C33.1994 183.837 32.7769 183.937 32.3472 184.005C31.9175 184.073 31.4198 184.107 30.854 184.107C29.6652 184.107 28.7396 183.755 28.0771 183.049C27.4147 182.34 27.0835 181.348 27.0835 180.074C27.0835 179.257 27.2464 178.543 27.5723 177.931C27.9017 177.315 28.3743 176.846 28.9902 176.523C29.6061 176.198 30.3276 176.035 31.1548 176.035C31.9927 176.035 32.7733 176.189 33.4966 176.497L33.1421 177.302C32.4331 177.001 31.751 176.851 31.0957 176.851C30.1396 176.851 29.3931 177.136 28.856 177.705C28.3188 178.274 28.0503 179.064 28.0503 180.074C28.0503 181.134 28.3081 181.938 28.8237 182.485C29.3429 183.033 30.1038 183.307 31.1064 183.307C31.6507 183.307 32.1825 183.244 32.7017 183.119V180.702H30.9453V179.886ZM37.8579 184.107C36.9878 184.107 36.3003 183.842 35.7954 183.312C35.2941 182.783 35.0435 182.047 35.0435 181.105C35.0435 180.156 35.2762 179.402 35.7417 178.844C36.2108 178.285 36.8392 178.006 37.627 178.006C38.3646 178.006 38.9482 178.249 39.3779 178.736C39.8076 179.22 40.0225 179.859 40.0225 180.654V181.218H35.9673C35.9852 181.909 36.1589 182.433 36.4883 182.792C36.8213 183.15 37.2886 183.329 37.8901 183.329C38.5239 183.329 39.1506 183.196 39.77 182.931V183.726C39.4549 183.862 39.1559 183.959 38.873 184.016C38.5938 184.077 38.2554 184.107 37.8579 184.107ZM37.6162 178.752C37.1436 178.752 36.7658 178.906 36.4829 179.214C36.2036 179.522 36.0389 179.948 35.9888 180.493H39.0664C39.0664 179.931 38.9411 179.501 38.6904 179.204C38.4398 178.903 38.0817 178.752 37.6162 178.752ZM46.6289 181.051C46.6289 182.011 46.3872 182.761 45.9038 183.302C45.4204 183.839 44.7526 184.107 43.9004 184.107C43.374 184.107 42.9067 183.984 42.4985 183.737C42.0903 183.49 41.7752 183.135 41.5532 182.673C41.3312 182.211 41.2202 181.671 41.2202 181.051C41.2202 180.092 41.4601 179.345 41.9399 178.812C42.4198 178.274 43.0858 178.006 43.938 178.006C44.7616 178.006 45.415 178.28 45.8984 178.828C46.3854 179.375 46.6289 180.117 46.6289 181.051ZM42.144 181.051C42.144 181.803 42.2944 182.376 42.5952 182.77C42.896 183.164 43.3382 183.361 43.9219 183.361C44.5055 183.361 44.9478 183.166 45.2485 182.775C45.5529 182.382 45.7051 181.807 45.7051 181.051C45.7051 180.303 45.5529 179.735 45.2485 179.349C44.9478 178.958 44.502 178.763 43.9111 178.763C43.3275 178.763 42.887 178.955 42.5898 179.338C42.2926 179.721 42.144 180.292 42.144 181.051ZM55.7007 184V180.17C55.7007 179.701 55.6004 179.35 55.3999 179.118C55.1994 178.881 54.8879 178.763 54.4653 178.763C53.9103 178.763 53.5003 178.923 53.2354 179.241C52.9704 179.56 52.8379 180.05 52.8379 180.713V184H51.9463V180.17C51.9463 179.701 51.846 179.35 51.6455 179.118C51.445 178.881 51.1317 178.763 50.7056 178.763C50.147 178.763 49.737 178.931 49.4756 179.268C49.2178 179.601 49.0889 180.149 49.0889 180.912V184H48.1973V178.113H48.9224L49.0674 178.919H49.1104C49.2786 178.632 49.515 178.409 49.8193 178.248C50.1273 178.086 50.471 178.006 50.8506 178.006C51.7708 178.006 52.3724 178.339 52.6553 179.005H52.6982C52.8737 178.697 53.1279 178.453 53.4609 178.274C53.7939 178.095 54.1735 178.006 54.5996 178.006C55.2656 178.006 55.7633 178.178 56.0928 178.521C56.4258 178.862 56.5923 179.408 56.5923 180.16V184H55.7007ZM60.9214 184.107C60.0513 184.107 59.3638 183.842 58.8589 183.312C58.3576 182.783 58.1069 182.047 58.1069 181.105C58.1069 180.156 58.3397 179.402 58.8052 178.844C59.2743 178.285 59.9027 178.006 60.6904 178.006C61.4281 178.006 62.0117 178.249 62.4414 178.736C62.8711 179.22 63.0859 179.859 63.0859 180.654V181.218H59.0308C59.0487 181.909 59.2223 182.433 59.5518 182.792C59.8848 183.15 60.3521 183.329 60.9536 183.329C61.5874 183.329 62.214 183.196 62.8335 182.931V183.726C62.5184 183.862 62.2194 183.959 61.9365 184.016C61.6572 184.077 61.3188 184.107 60.9214 184.107ZM60.6797 178.752C60.207 178.752 59.8293 178.906 59.5464 179.214C59.2671 179.522 59.1024 179.948 59.0522 180.493H62.1299C62.1299 179.931 62.0046 179.501 61.7539 179.204C61.5033 178.903 61.1452 178.752 60.6797 178.752ZM66.5127 183.372C66.6702 183.372 66.8224 183.361 66.9692 183.339C67.116 183.314 67.2324 183.289 67.3184 183.264V183.946C67.2217 183.993 67.0785 184.03 66.8887 184.059C66.7025 184.091 66.5342 184.107 66.3838 184.107C65.2451 184.107 64.6758 183.508 64.6758 182.308V178.806H63.8325V178.376L64.6758 178.006L65.0518 176.749H65.5674V178.113H67.2754V178.806H65.5674V182.271C65.5674 182.625 65.6515 182.897 65.8198 183.087C65.9881 183.277 66.2191 183.372 66.5127 183.372ZM71.1855 178.006C71.4469 178.006 71.6815 178.027 71.8892 178.07L71.7656 178.897C71.5221 178.844 71.3073 178.817 71.1211 178.817C70.6449 178.817 70.2367 179.01 69.8965 179.397C69.5599 179.784 69.3916 180.265 69.3916 180.842V184H68.5V178.113H69.2358L69.3379 179.204H69.3809C69.5993 178.82 69.8625 178.525 70.1704 178.317C70.4784 178.11 70.8167 178.006 71.1855 178.006ZM72.0557 178.113H73.0117L74.3008 181.47C74.5837 182.236 74.7591 182.79 74.8271 183.13H74.8701C74.9167 182.947 75.0133 182.636 75.1602 182.195C75.3105 181.751 75.7975 180.391 76.6211 178.113H77.5771L75.0474 184.816C74.7967 185.479 74.5031 185.948 74.1665 186.224C73.8335 186.503 73.4235 186.643 72.9365 186.643C72.6644 186.643 72.3958 186.612 72.1309 186.551V185.837C72.3278 185.88 72.548 185.901 72.7915 185.901C73.4038 185.901 73.8407 185.558 74.1021 184.87L74.4297 184.032L72.0557 178.113Z" fill="#8062BD"/>
<rect x="252" y="170" width="80" height="20" rx="10" fill="white" stroke="#8062BD"/>
<rect x="132" y="102" width="80" height="20" rx="10" fill="white" stroke="#8062BD"/>
<path d="M162.493 116L159.829 109.039H159.786C159.836 109.59 159.861 110.246 159.861 111.005V116H159.018V108.147H160.393L162.88 114.625H162.923L165.431 108.147H166.795V116H165.882V110.94C165.882 110.36 165.907 109.73 165.958 109.05H165.915L163.229 116H162.493ZM171.307 116.107C170.437 116.107 169.75 115.842 169.245 115.312C168.743 114.783 168.493 114.047 168.493 113.105C168.493 112.156 168.725 111.402 169.191 110.844C169.66 110.285 170.288 110.006 171.076 110.006C171.814 110.006 172.397 110.249 172.827 110.736C173.257 111.22 173.472 111.859 173.472 112.654V113.218H169.417C169.434 113.909 169.608 114.433 169.938 114.792C170.271 115.15 170.738 115.329 171.339 115.329C171.973 115.329 172.6 115.196 173.219 114.931V115.726C172.904 115.862 172.605 115.959 172.322 116.016C172.043 116.077 171.705 116.107 171.307 116.107ZM171.065 110.752C170.593 110.752 170.215 110.906 169.932 111.214C169.653 111.522 169.488 111.948 169.438 112.493H172.516C172.516 111.931 172.39 111.501 172.14 111.204C171.889 110.903 171.531 110.752 171.065 110.752ZM178.794 114.394C178.794 114.942 178.59 115.364 178.182 115.662C177.774 115.959 177.201 116.107 176.463 116.107C175.683 116.107 175.074 115.984 174.637 115.737V114.91C174.92 115.053 175.223 115.166 175.545 115.248C175.871 115.33 176.184 115.372 176.485 115.372C176.95 115.372 177.308 115.298 177.559 115.151C177.81 115.001 177.935 114.774 177.935 114.469C177.935 114.24 177.835 114.045 177.634 113.884C177.437 113.719 177.051 113.526 176.474 113.304C175.926 113.1 175.536 112.922 175.303 112.772C175.074 112.618 174.902 112.444 174.788 112.251C174.677 112.058 174.621 111.827 174.621 111.558C174.621 111.078 174.816 110.701 175.207 110.425C175.597 110.146 176.132 110.006 176.812 110.006C177.446 110.006 178.066 110.135 178.671 110.393L178.354 111.118C177.763 110.874 177.228 110.752 176.748 110.752C176.326 110.752 176.007 110.819 175.792 110.951C175.577 111.084 175.47 111.266 175.47 111.499C175.47 111.657 175.509 111.791 175.588 111.902C175.67 112.013 175.801 112.118 175.98 112.219C176.159 112.319 176.503 112.464 177.011 112.654C177.709 112.908 178.18 113.164 178.424 113.422C178.671 113.68 178.794 114.004 178.794 114.394ZM184.278 116V112.192C184.278 111.712 184.169 111.354 183.951 111.118C183.732 110.881 183.39 110.763 182.925 110.763C182.305 110.763 181.852 110.931 181.566 111.268C181.283 111.605 181.142 112.156 181.142 112.922V116H180.25V107.643H181.142V110.172C181.142 110.477 181.127 110.729 181.099 110.93H181.152C181.328 110.647 181.577 110.425 181.899 110.264C182.225 110.099 182.595 110.017 183.011 110.017C183.73 110.017 184.269 110.188 184.627 110.532C184.989 110.872 185.17 111.415 185.17 112.16V116H184.278Z" fill="#8062BD"/>
<rect x="252" y="102" width="80" height="20" rx="10" fill="white" stroke="#8062BD"/>
<path d="M280.495 116V108.147H281.408V115.173H284.873V116H280.495ZM286.967 116H286.076V110.113H286.967V116ZM286 108.518C286 108.314 286.051 108.165 286.151 108.072C286.251 107.976 286.376 107.927 286.527 107.927C286.67 107.927 286.794 107.976 286.897 108.072C287.001 108.169 287.053 108.318 287.053 108.518C287.053 108.719 287.001 108.869 286.897 108.969C286.794 109.066 286.67 109.114 286.527 109.114C286.376 109.114 286.251 109.066 286.151 108.969C286.051 108.869 286 108.719 286 108.518ZM293.676 110.113V110.677L292.585 110.806C292.686 110.931 292.775 111.096 292.854 111.3C292.933 111.501 292.972 111.728 292.972 111.982C292.972 112.559 292.775 113.019 292.381 113.363C291.987 113.707 291.447 113.878 290.759 113.878C290.584 113.878 290.419 113.864 290.265 113.835C289.886 114.036 289.696 114.288 289.696 114.593C289.696 114.754 289.762 114.874 289.895 114.953C290.027 115.028 290.254 115.065 290.577 115.065H291.619C292.256 115.065 292.745 115.2 293.085 115.468C293.429 115.737 293.601 116.127 293.601 116.639C293.601 117.291 293.339 117.787 292.816 118.127C292.294 118.471 291.531 118.643 290.528 118.643C289.758 118.643 289.164 118.499 288.745 118.213C288.33 117.926 288.122 117.522 288.122 116.999C288.122 116.641 288.237 116.331 288.466 116.07C288.695 115.808 289.017 115.631 289.433 115.538C289.282 115.47 289.155 115.364 289.051 115.221C288.951 115.078 288.901 114.911 288.901 114.722C288.901 114.507 288.958 114.319 289.073 114.158C289.187 113.997 289.368 113.841 289.615 113.69C289.311 113.565 289.062 113.352 288.869 113.051C288.679 112.75 288.584 112.407 288.584 112.02C288.584 111.375 288.777 110.88 289.164 110.532C289.551 110.181 290.099 110.006 290.808 110.006C291.116 110.006 291.393 110.042 291.64 110.113H293.676ZM288.981 116.988C288.981 117.307 289.116 117.549 289.384 117.713C289.653 117.878 290.038 117.96 290.539 117.96C291.287 117.96 291.841 117.848 292.199 117.622C292.56 117.4 292.741 117.097 292.741 116.714C292.741 116.396 292.643 116.174 292.446 116.048C292.249 115.927 291.878 115.866 291.334 115.866H290.265C289.861 115.866 289.545 115.962 289.32 116.156C289.094 116.349 288.981 116.627 288.981 116.988ZM289.465 111.999C289.465 112.41 289.581 112.722 289.814 112.933C290.047 113.144 290.371 113.25 290.786 113.25C291.656 113.25 292.091 112.827 292.091 111.982C292.091 111.098 291.651 110.656 290.77 110.656C290.351 110.656 290.029 110.769 289.803 110.994C289.578 111.22 289.465 111.555 289.465 111.999ZM298.913 116V112.192C298.913 111.712 298.803 111.354 298.585 111.118C298.367 110.881 298.025 110.763 297.559 110.763C296.94 110.763 296.487 110.931 296.2 111.268C295.917 111.605 295.776 112.156 295.776 112.922V116H294.884V107.643H295.776V110.172C295.776 110.477 295.762 110.729 295.733 110.93H295.787C295.962 110.647 296.211 110.425 296.533 110.264C296.859 110.099 297.23 110.017 297.645 110.017C298.365 110.017 298.904 110.188 299.262 110.532C299.623 110.872 299.804 111.415 299.804 112.16V116H298.913ZM303.542 115.372C303.7 115.372 303.852 115.361 303.999 115.339C304.146 115.314 304.262 115.289 304.348 115.264V115.946C304.251 115.993 304.108 116.03 303.918 116.059C303.732 116.091 303.564 116.107 303.414 116.107C302.275 116.107 301.706 115.508 301.706 114.308V110.806H300.862V110.376L301.706 110.006L302.082 108.749H302.597V110.113H304.305V110.806H302.597V114.271C302.597 114.625 302.681 114.897 302.85 115.087C303.018 115.277 303.249 115.372 303.542 115.372Z" fill="#8062BD"/>
<rect x="252" y="224" width="80" height="20" rx="10" fill="white" stroke="#8062BD"/>
<path d="M275.822 238H274.909V230.958H272.422V230.147H278.309V230.958H275.822V238ZM281.849 238.107C280.979 238.107 280.291 237.842 279.786 237.312C279.285 236.783 279.034 236.047 279.034 235.105C279.034 234.156 279.267 233.402 279.732 232.844C280.201 232.285 280.83 232.006 281.618 232.006C282.355 232.006 282.939 232.249 283.369 232.736C283.798 233.22 284.013 233.859 284.013 234.654V235.218H279.958C279.976 235.909 280.15 236.433 280.479 236.792C280.812 237.15 281.279 237.329 281.881 237.329C282.515 237.329 283.141 237.196 283.761 236.931V237.726C283.446 237.862 283.147 237.959 282.864 238.016C282.584 238.077 282.246 238.107 281.849 238.107ZM281.607 232.752C281.134 232.752 280.757 232.906 280.474 233.214C280.194 233.522 280.03 233.948 279.979 234.493H283.057C283.057 233.931 282.932 233.501 282.681 233.204C282.431 232.903 282.072 232.752 281.607 232.752ZM286.957 234.987L284.91 232.113H285.925L287.478 234.369L289.024 232.113H290.029L287.982 234.987L290.136 238H289.126L287.478 235.615L285.812 238H284.803L286.957 234.987ZM293.208 237.372C293.366 237.372 293.518 237.361 293.665 237.339C293.812 237.314 293.928 237.289 294.014 237.264V237.946C293.917 237.993 293.774 238.03 293.584 238.059C293.398 238.091 293.23 238.107 293.08 238.107C291.941 238.107 291.372 237.508 291.372 236.308V232.806H290.528V232.376L291.372 232.006L291.748 230.749H292.263V232.113H293.971V232.806H292.263V236.271C292.263 236.625 292.347 236.897 292.516 237.087C292.684 237.277 292.915 237.372 293.208 237.372ZM296.034 232.113V235.932C296.034 236.412 296.143 236.77 296.361 237.006C296.58 237.243 296.922 237.361 297.387 237.361C298.003 237.361 298.452 237.193 298.735 236.856C299.022 236.519 299.165 235.97 299.165 235.207V232.113H300.057V238H299.321L299.192 237.21H299.144C298.961 237.5 298.707 237.722 298.381 237.876C298.059 238.03 297.69 238.107 297.274 238.107C296.558 238.107 296.021 237.937 295.663 237.597C295.309 237.257 295.131 236.713 295.131 235.964V232.113H296.034ZM304.638 232.006C304.9 232.006 305.134 232.027 305.342 232.07L305.218 232.897C304.975 232.844 304.76 232.817 304.574 232.817C304.097 232.817 303.689 233.01 303.349 233.397C303.013 233.784 302.844 234.265 302.844 234.842V238H301.953V232.113H302.688L302.791 233.204H302.833C303.052 232.82 303.315 232.525 303.623 232.317C303.931 232.11 304.269 232.006 304.638 232.006ZM308.93 238.107C308.06 238.107 307.372 237.842 306.867 237.312C306.366 236.783 306.115 236.047 306.115 235.105C306.115 234.156 306.348 233.402 306.813 232.844C307.283 232.285 307.911 232.006 308.699 232.006C309.436 232.006 310.02 232.249 310.45 232.736C310.879 233.22 311.094 233.859 311.094 234.654V235.218H307.039C307.057 235.909 307.231 236.433 307.56 236.792C307.893 237.15 308.36 237.329 308.962 237.329C309.596 237.329 310.222 237.196 310.842 236.931V237.726C310.527 237.862 310.228 237.959 309.945 238.016C309.666 238.077 309.327 238.107 308.93 238.107ZM308.688 232.752C308.215 232.752 307.838 232.906 307.555 233.214C307.275 233.522 307.111 233.948 307.061 234.493H310.138C310.138 233.931 310.013 233.501 309.762 233.204C309.512 232.903 309.153 232.752 308.688 232.752Z" fill="#8062BD"/>
<path d="M100.5 26C100.5 25.7239 100.276 25.5 100 25.5C99.7239 25.5 99.5 25.7239 99.5 26L100.5 26ZM172.5 49C172.5 49.2761 172.724 49.5 173 49.5C173.276 49.5 173.5 49.2761 173.5 49L172.5 49ZM163 37.1788L110 37.1788L110 38.1788L163 38.1788L163 37.1788ZM100.5 27.6788L100.5 26L99.5 26L99.5 27.6788L100.5 27.6788ZM172.5 47.6788L172.5 49L173.5 49L173.5 47.6788L172.5 47.6788ZM110 37.1788C104.753 37.1788 100.5 32.9255 100.5 27.6788L99.5 27.6788C99.5 33.4778 104.201 38.1788 110 38.1788L110 37.1788ZM163 38.1788C168.247 38.1788 172.5 42.4321 172.5 47.6788L173.5 47.6788C173.5 41.8798 168.799 37.1788 163 37.1788L163 38.1788Z" fill="#B4B4B4"/>
<path d="M195.5 72C195.5 71.7239 195.276 71.5 195 71.5C194.724 71.5 194.5 71.7239 194.5 72L195.5 72ZM293.5 102C293.5 102.276 293.724 102.5 294 102.5C294.276 102.5 294.5 102.276 294.5 102L293.5 102ZM284 90.1788L205 90.1788L205 91.1788L284 91.1788L284 90.1788ZM195.5 80.6788L195.5 72L194.5 72L194.5 80.6788L195.5 80.6788ZM293.5 100.679L293.5 102L294.5 102L294.5 100.679L293.5 100.679ZM205 90.1788C199.753 90.1788 195.5 85.9255 195.5 80.6788L194.5 80.6788C194.5 86.4778 199.201 91.1788 205 91.1788L205 90.1788ZM284 91.1788C289.247 91.1788 293.5 95.4321 293.5 100.679L294.5 100.679C294.5 94.8798 289.799 90.1788 284 90.1788L284 91.1788Z" fill="#B4B4B4"/>
<path d="M151.5 72C151.5 71.7239 151.724 71.5 152 71.5C152.276 71.5 152.5 71.7239 152.5 72L151.5 72ZM60.5 102C60.5 102.276 60.2761 102.5 60 102.5C59.7239 102.5 59.5 102.276 59.5 102L60.5 102ZM70 89.9932L142 89.9932L142 90.9932L70 90.9932L70 89.9932ZM151.5 80.4932L151.5 72L152.5 72L152.5 80.4932L151.5 80.4932ZM60.5 100.493L60.5 102L59.5 102L59.5 100.493L60.5 100.493ZM142 89.9932C147.247 89.9932 151.5 85.7399 151.5 80.4932L152.5 80.4932C152.5 86.2922 147.799 90.9932 142 90.9932L142 89.9932ZM70 90.9932C64.7533 90.9932 60.5 95.2465 60.5 100.493L59.5 100.493C59.5 94.6943 64.201 89.9932 70 89.9932L70 90.9932Z" fill="#B4B4B4"/>
<path d="M157.5 123C157.5 122.724 157.724 122.5 158 122.5C158.276 122.5 158.5 122.724 158.5 123L157.5 123ZM48.5 169C48.5 169.276 48.2761 169.5 48 169.5C47.7239 169.5 47.5 169.276 47.5 169L48.5 169ZM148 150.493L148 149.993L148 150.493ZM158 140.493L157.5 140.493L158 140.493ZM58 150.493L58 149.993L58 150.493ZM58 149.993L148 149.993L148 150.993L58 150.993L58 149.993ZM157.5 140.493L157.5 123L158.5 123L158.5 140.493L157.5 140.493ZM48.5 160.493L48.5 169L47.5 169L47.5 160.493L48.5 160.493ZM148 149.993C153.247 149.993 157.5 145.74 157.5 140.493L158.5 140.493C158.5 146.292 153.799 150.993 148 150.993L148 149.993ZM58 150.993C52.7533 150.993 48.5 155.247 48.5 160.493L47.5 160.493C47.5 154.694 52.201 149.993 58 149.993L58 150.993Z" fill="#B4B4B4"/>
<path d="M190.5 123C190.5 122.724 190.276 122.5 190 122.5C189.724 122.5 189.5 122.724 189.5 123L190.5 123ZM299.5 169C299.5 169.276 299.724 169.5 300 169.5C300.276 169.5 300.5 169.276 300.5 169L299.5 169ZM200 150.493L200 149.993L200 150.493ZM290 149.993L200 149.993L200 150.993L290 150.993L290 149.993ZM190.5 140.493L190.5 123L189.5 123L189.5 140.493L190.5 140.493ZM299.5 160.493L299.5 169L300.5 169L300.5 160.493L299.5 160.493ZM200 149.993C194.753 149.993 190.5 145.74 190.5 140.493L189.5 140.493C189.5 146.292 194.201 150.993 200 150.993L200 149.993ZM290 150.993C295.247 150.993 299.5 155.247 299.5 160.493L300.5 160.493C300.5 154.694 295.799 149.993 290 149.993L290 150.993Z" fill="#B4B4B4"/>
<path d="M82.5 25.3212C82.5 25.045 82.7239 24.8212 83 24.8212C83.2761 24.8212 83.5 25.045 83.5 25.3212L82.5 25.3212ZM40.5 100C40.5 100.276 40.2761 100.5 40 100.5C39.7239 100.5 39.5 100.276 39.5 100L40.5 100ZM83 54.5L82.5 54.5L83 54.5ZM50 64L73 64L73 65L50 65L50 64ZM82.5 54.5L82.5 25.3212L83.5 25.3212L83.5 54.5L82.5 54.5ZM40.5 74.5L40.5 100L39.5 100L39.5 74.5L40.5 74.5ZM73 64C78.2467 64 82.5 59.7467 82.5 54.5L83.5 54.5C83.5 60.299 78.799 65 73 65L73 64ZM50 65C44.7533 65 40.5 69.2533 40.5 74.5L39.5 74.5C39.5 68.701 44.201 64 50 64L50 65Z" fill="#B4B4B4"/>
<circle cx="173" cy="51" r="2.25" transform="rotate(-90 173 51)" fill="#FAFAFA" stroke="#B4B4B4" stroke-width="1.5"/>
<circle cx="40" cy="102" r="2.25" transform="rotate(-90 40 102)" fill="#FAFAFA" stroke="#B4B4B4" stroke-width="1.5"/>
<circle cx="60" cy="102" r="2.25" transform="rotate(-90 60 102)" fill="#FAFAFA" stroke="#B4B4B4" stroke-width="1.5"/>
<path d="M102.481 26.9437C102.771 27.1292 103.13 26.8206 102.953 26.5378L100.441 21.8269C100.253 21.474 99.747 21.474 99.5587 21.8268L97.0518 26.5246C96.8665 26.8023 97.2156 27.1209 97.5112 26.9437C99.1089 25.986 100.914 25.9412 102.481 26.9437Z" fill="#B4B4B4"/>
<path d="M275.403 184L272.739 177.039H272.696C272.746 177.59 272.771 178.246 272.771 179.005V184H271.928V176.147H273.303L275.79 182.625H275.833L278.341 176.147H279.706V184H278.792V178.94C278.792 178.36 278.818 177.73 278.868 177.05H278.825L276.139 184H275.403ZM285.351 184L285.173 183.162H285.13C284.837 183.531 284.543 183.782 284.25 183.914C283.959 184.043 283.596 184.107 283.159 184.107C282.576 184.107 282.117 183.957 281.784 183.656C281.455 183.355 281.29 182.928 281.29 182.373C281.29 181.184 282.241 180.561 284.142 180.503L285.141 180.471V180.106C285.141 179.644 285.041 179.304 284.84 179.085C284.643 178.863 284.326 178.752 283.89 178.752C283.399 178.752 282.844 178.903 282.225 179.204L281.951 178.521C282.241 178.364 282.558 178.24 282.901 178.151C283.249 178.061 283.596 178.017 283.943 178.017C284.645 178.017 285.164 178.172 285.501 178.484C285.841 178.795 286.011 179.295 286.011 179.982V184H285.351ZM283.336 183.372C283.891 183.372 284.326 183.219 284.642 182.915C284.96 182.611 285.12 182.185 285.12 181.637V181.105L284.228 181.143C283.519 181.168 283.007 181.279 282.692 181.476C282.38 181.669 282.225 181.972 282.225 182.383C282.225 182.706 282.321 182.951 282.515 183.119C282.712 183.287 282.986 183.372 283.336 183.372ZM289.755 183.372C289.912 183.372 290.065 183.361 290.211 183.339C290.358 183.314 290.475 183.289 290.561 183.264V183.946C290.464 183.993 290.321 184.03 290.131 184.059C289.945 184.091 289.776 184.107 289.626 184.107C288.487 184.107 287.918 183.508 287.918 182.308V178.806H287.075V178.376L287.918 178.006L288.294 176.749H288.81V178.113H290.518V178.806H288.81V182.271C288.81 182.625 288.894 182.897 289.062 183.087C289.23 183.277 289.461 183.372 289.755 183.372ZM294.229 184.107C293.359 184.107 292.671 183.842 292.167 183.312C291.665 182.783 291.415 182.047 291.415 181.105C291.415 180.156 291.647 179.402 292.113 178.844C292.582 178.285 293.21 178.006 293.998 178.006C294.736 178.006 295.319 178.249 295.749 178.736C296.179 179.22 296.394 179.859 296.394 180.654V181.218H292.338C292.356 181.909 292.53 182.433 292.859 182.792C293.192 183.15 293.66 183.329 294.261 183.329C294.895 183.329 295.522 183.196 296.141 182.931V183.726C295.826 183.862 295.527 183.959 295.244 184.016C294.965 184.077 294.626 184.107 294.229 184.107ZM293.987 178.752C293.515 178.752 293.137 178.906 292.854 179.214C292.575 179.522 292.41 179.948 292.36 180.493H295.438C295.438 179.931 295.312 179.501 295.062 179.204C294.811 178.903 294.453 178.752 293.987 178.752ZM300.604 178.006C300.866 178.006 301.1 178.027 301.308 178.07L301.185 178.897C300.941 178.844 300.726 178.817 300.54 178.817C300.064 178.817 299.656 179.01 299.315 179.397C298.979 179.784 298.811 180.265 298.811 180.842V184H297.919V178.113H298.655L298.757 179.204H298.8C299.018 178.82 299.281 178.525 299.589 178.317C299.897 178.11 300.236 178.006 300.604 178.006ZM303.301 184H302.409V178.113H303.301V184ZM302.334 176.518C302.334 176.314 302.384 176.165 302.484 176.072C302.585 175.976 302.71 175.927 302.86 175.927C303.004 175.927 303.127 175.976 303.231 176.072C303.335 176.169 303.387 176.318 303.387 176.518C303.387 176.719 303.335 176.869 303.231 176.969C303.127 177.066 303.004 177.114 302.86 177.114C302.71 177.114 302.585 177.066 302.484 176.969C302.384 176.869 302.334 176.719 302.334 176.518ZM308.812 184L308.634 183.162H308.591C308.298 183.531 308.004 183.782 307.71 183.914C307.42 184.043 307.057 184.107 306.62 184.107C306.036 184.107 305.578 183.957 305.245 183.656C304.916 183.355 304.751 182.928 304.751 182.373C304.751 181.184 305.702 180.561 307.603 180.503L308.602 180.471V180.106C308.602 179.644 308.502 179.304 308.301 179.085C308.104 178.863 307.787 178.752 307.351 178.752C306.86 178.752 306.305 178.903 305.686 179.204L305.412 178.521C305.702 178.364 306.019 178.24 306.362 178.151C306.71 178.061 307.057 178.017 307.404 178.017C308.106 178.017 308.625 178.172 308.962 178.484C309.302 178.795 309.472 179.295 309.472 179.982V184H308.812ZM306.797 183.372C307.352 183.372 307.787 183.219 308.103 182.915C308.421 182.611 308.581 182.185 308.581 181.637V181.105L307.689 181.143C306.98 181.168 306.468 181.279 306.153 181.476C305.841 181.669 305.686 181.972 305.686 182.383C305.686 182.706 305.782 182.951 305.976 183.119C306.173 183.287 306.446 183.372 306.797 183.372ZM312.206 184H311.314V175.643H312.206V184Z" fill="#8062BD"/>
<path d="M85.481 26.9437C85.7709 27.1292 86.1298 26.8206 85.9531 26.5378L83.441 21.8269C83.2528 21.474 82.747 21.474 82.5587 21.8268L80.0518 26.5246C79.8665 26.8023 80.2156 27.1209 80.5112 26.9437C82.1089 25.986 83.9136 25.9412 85.481 26.9437Z" fill="#B4B4B4"/>
<path d="M154.481 76.9437C154.771 77.1292 155.13 76.8206 154.953 76.5378L152.441 71.8269C152.253 71.474 151.747 71.474 151.559 71.8268L149.052 76.5246C148.866 76.8023 149.216 77.1209 149.511 76.9437C151.109 75.986 152.914 75.9412 154.481 76.9437Z" fill="#B4B4B4"/>
<path d="M160.481 127.944C160.771 128.129 161.13 127.821 160.953 127.538L158.441 122.827C158.253 122.474 157.747 122.474 157.559 122.827L155.052 127.525C154.866 127.802 155.216 128.121 155.511 127.944C157.109 126.986 158.914 126.941 160.481 127.944Z" fill="#B4B4B4"/>
<path d="M192.481 127.944C192.771 128.129 193.13 127.821 192.953 127.538L190.441 122.827C190.253 122.474 189.747 122.474 189.559 122.827L187.052 127.525C186.866 127.802 187.216 128.121 187.511 127.944C189.109 126.986 190.914 126.941 192.481 127.944Z" fill="#B4B4B4"/>
<path d="M175.481 76.9437C175.771 77.1292 176.13 76.8206 175.953 76.5378L173.441 71.8269C173.253 71.474 172.747 71.474 172.559 71.8268L170.052 76.5246C169.866 76.8023 170.216 77.1209 170.511 76.9437C172.109 75.986 173.914 75.9412 175.481 76.9437Z" fill="#B4B4B4"/>
<path d="M197.481 76.9437C197.771 77.1292 198.13 76.8206 197.953 76.5378L195.441 71.8269C195.253 71.474 194.747 71.474 194.559 71.8268L192.052 76.5246C191.866 76.8023 192.216 77.1209 192.511 76.9437C194.109 75.986 195.914 75.9412 197.481 76.9437Z" fill="#B4B4B4"/>
<path d="M172.5 102C172.5 102.276 172.724 102.5 173 102.5C173.276 102.5 173.5 102.276 173.5 102L172.5 102ZM173.5 72C173.5 71.7239 173.276 71.5 173 71.5C172.724 71.5 172.5 71.7239 172.5 72L173.5 72ZM173.5 102L173.5 72L172.5 72L172.5 102L173.5 102Z" fill="#B4B4B4"/>
<circle cx="173" cy="102" r="2.25" transform="rotate(-90 173 102)" fill="#FAFAFA" stroke="#B4B4B4" stroke-width="1.5"/>
<path d="M302.481 195.944C302.771 196.129 303.13 195.821 302.953 195.538L300.441 190.827C300.253 190.474 299.747 190.474 299.559 190.827L297.052 195.525C296.866 195.802 297.216 196.121 297.511 195.944C299.109 194.986 300.914 194.941 302.481 195.944Z" fill="#B4B4B4"/>
<path d="M299.5 221C299.5 221.276 299.724 221.5 300 221.5C300.276 221.5 300.5 221.276 300.5 221L299.5 221ZM300.5 191C300.5 190.724 300.276 190.5 300 190.5C299.724 190.5 299.5 190.724 299.5 191L300.5 191ZM300.5 221L300.5 191L299.5 191L299.5 221L300.5 221Z" fill="#B4B4B4"/>
<circle cx="300" cy="221" r="2.25" transform="rotate(-90 300 221)" fill="#FAFAFA" stroke="#B4B4B4" stroke-width="1.5"/>
<circle cx="294" cy="102" r="2.25" transform="rotate(-90 294 102)" fill="#FAFAFA" stroke="#B4B4B4" stroke-width="1.5"/>
<circle cx="300" cy="170" r="2.25" transform="rotate(-90 300 170)" fill="#FAFAFA" stroke="#B4B4B4" stroke-width="1.5"/>
<circle cx="48" cy="169" r="2.25" transform="rotate(-90 48 169)" fill="#FAFAFA" stroke="#B4B4B4" stroke-width="1.5"/>
</svg>
