<svg width="217" height="122" viewBox="0 0 217 122" fill="none" xmlns="http://www.w3.org/2000/svg">
<rect x="9" y="51" width="80" height="20" rx="10" fill="white" stroke="#8062BD"/>
<path d="M27.9453 60.8857H30.6147V64.7046C30.1994 64.8371 29.7769 64.9373 29.3472 65.0054C28.9175 65.0734 28.4198 65.1074 27.854 65.1074C26.6652 65.1074 25.7396 64.7547 25.0771 64.0493C24.4147 63.3403 24.0835 62.3485 24.0835 61.0737C24.0835 60.2573 24.2464 59.543 24.5723 58.9307C24.9017 58.3148 25.3743 57.8457 25.9902 57.5234C26.6061 57.1976 27.3276 57.0347 28.1548 57.0347C28.9927 57.0347 29.7733 57.1886 30.4966 57.4966L30.1421 58.3022C29.4331 58.0015 28.751 57.8511 28.0957 57.8511C27.1396 57.8511 26.3931 58.1357 25.856 58.7051C25.3188 59.2744 25.0503 60.064 25.0503 61.0737C25.0503 62.1336 25.3081 62.9375 25.8237 63.4854C26.3429 64.0332 27.1038 64.3071 28.1064 64.3071C28.6507 64.3071 29.1825 64.2445 29.7017 64.1191V61.7021H27.9453V60.8857ZM34.8579 65.1074C33.9878 65.1074 33.3003 64.8424 32.7954 64.3125C32.2941 63.7826 32.0435 63.0467 32.0435 62.105C32.0435 61.1561 32.2762 60.4023 32.7417 59.8438C33.2108 59.2852 33.8392 59.0059 34.627 59.0059C35.3646 59.0059 35.9482 59.2493 36.3779 59.7363C36.8076 60.2197 37.0225 60.8589 37.0225 61.6538V62.2178H32.9673C32.9852 62.9089 33.1589 63.4334 33.4883 63.7915C33.8213 64.1496 34.2886 64.3286 34.8901 64.3286C35.5239 64.3286 36.1506 64.1961 36.77 63.9312V64.7261C36.4549 64.8621 36.1559 64.9588 35.873 65.0161C35.5938 65.077 35.2554 65.1074 34.8579 65.1074ZM34.6162 59.7524C34.1436 59.7524 33.7658 59.9064 33.4829 60.2144C33.2036 60.5223 33.0389 60.9484 32.9888 61.4927H36.0664C36.0664 60.9305 35.9411 60.5008 35.6904 60.2036C35.4398 59.9028 35.0817 59.7524 34.6162 59.7524ZM43.6289 62.0513C43.6289 63.0109 43.3872 63.7611 42.9038 64.3018C42.4204 64.8389 41.7526 65.1074 40.9004 65.1074C40.374 65.1074 39.9067 64.9839 39.4985 64.7368C39.0903 64.4897 38.7752 64.1353 38.5532 63.6733C38.3312 63.2114 38.2202 62.6707 38.2202 62.0513C38.2202 61.0916 38.4601 60.3451 38.9399 59.8115C39.4198 59.2744 40.0858 59.0059 40.938 59.0059C41.7616 59.0059 42.415 59.2798 42.8984 59.8276C43.3854 60.3755 43.6289 61.1167 43.6289 62.0513ZM39.144 62.0513C39.144 62.8032 39.2944 63.3761 39.5952 63.77C39.896 64.1639 40.3382 64.3608 40.9219 64.3608C41.5055 64.3608 41.9478 64.1657 42.2485 63.7754C42.5529 63.3815 42.7051 62.8068 42.7051 62.0513C42.7051 61.3029 42.5529 60.7354 42.2485 60.3486C41.9478 59.9583 41.502 59.7632 40.9111 59.7632C40.3275 59.7632 39.887 59.9548 39.5898 60.3379C39.2926 60.721 39.144 61.2922 39.144 62.0513ZM52.7007 65V61.1704C52.7007 60.7013 52.6004 60.3504 52.3999 60.1177C52.1994 59.8813 51.8879 59.7632 51.4653 59.7632C50.9103 59.7632 50.5003 59.9225 50.2354 60.2412C49.9704 60.5599 49.8379 61.0505 49.8379 61.7129V65H48.9463V61.1704C48.9463 60.7013 48.846 60.3504 48.6455 60.1177C48.445 59.8813 48.1317 59.7632 47.7056 59.7632C47.147 59.7632 46.737 59.9315 46.4756 60.2681C46.2178 60.6011 46.0889 61.1489 46.0889 61.9116V65H45.1973V59.1133H45.9224L46.0674 59.9189H46.1104C46.2786 59.6325 46.515 59.4087 46.8193 59.2476C47.1273 59.0864 47.471 59.0059 47.8506 59.0059C48.7708 59.0059 49.3724 59.3389 49.6553 60.0049H49.6982C49.8737 59.6969 50.1279 59.4535 50.4609 59.2744C50.7939 59.0954 51.1735 59.0059 51.5996 59.0059C52.2656 59.0059 52.7633 59.1777 53.0928 59.5215C53.4258 59.8617 53.5923 60.4077 53.5923 61.1597V65H52.7007ZM57.9214 65.1074C57.0513 65.1074 56.3638 64.8424 55.8589 64.3125C55.3576 63.7826 55.1069 63.0467 55.1069 62.105C55.1069 61.1561 55.3397 60.4023 55.8052 59.8438C56.2743 59.2852 56.9027 59.0059 57.6904 59.0059C58.4281 59.0059 59.0117 59.2493 59.4414 59.7363C59.8711 60.2197 60.0859 60.8589 60.0859 61.6538V62.2178H56.0308C56.0487 62.9089 56.2223 63.4334 56.5518 63.7915C56.8848 64.1496 57.3521 64.3286 57.9536 64.3286C58.5874 64.3286 59.214 64.1961 59.8335 63.9312V64.7261C59.5184 64.8621 59.2194 64.9588 58.9365 65.0161C58.6572 65.077 58.3188 65.1074 57.9214 65.1074ZM57.6797 59.7524C57.207 59.7524 56.8293 59.9064 56.5464 60.2144C56.2671 60.5223 56.1024 60.9484 56.0522 61.4927H59.1299C59.1299 60.9305 59.0046 60.5008 58.7539 60.2036C58.5033 59.9028 58.1452 59.7524 57.6797 59.7524ZM63.5127 64.3716C63.6702 64.3716 63.8224 64.3608 63.9692 64.3394C64.116 64.3143 64.2324 64.2892 64.3184 64.2642V64.9463C64.2217 64.9928 64.0785 65.0304 63.8887 65.0591C63.7025 65.0913 63.5342 65.1074 63.3838 65.1074C62.2451 65.1074 61.6758 64.5076 61.6758 63.3081V59.8062H60.8325V59.3765L61.6758 59.0059L62.0518 57.749H62.5674V59.1133H64.2754V59.8062H62.5674V63.2705C62.5674 63.625 62.6515 63.8971 62.8198 64.0869C62.9881 64.2767 63.2191 64.3716 63.5127 64.3716ZM68.1855 59.0059C68.4469 59.0059 68.6815 59.0273 68.8892 59.0703L68.7656 59.8975C68.5221 59.8438 68.3073 59.8169 68.1211 59.8169C67.6449 59.8169 67.2367 60.0103 66.8965 60.397C66.5599 60.7837 66.3916 61.2653 66.3916 61.8418V65H65.5V59.1133H66.2358L66.3379 60.2036H66.3809C66.5993 59.8205 66.8625 59.5251 67.1704 59.3174C67.4784 59.1097 67.8167 59.0059 68.1855 59.0059ZM69.0557 59.1133H70.0117L71.3008 62.4702C71.5837 63.2365 71.7591 63.7897 71.8271 64.1299H71.8701C71.9167 63.9473 72.0133 63.6357 72.1602 63.1953C72.3105 62.7513 72.7975 61.3906 73.6211 59.1133H74.5771L72.0474 65.8164C71.7967 66.4788 71.5031 66.9479 71.1665 67.2236C70.8335 67.5029 70.4235 67.6426 69.9365 67.6426C69.6644 67.6426 69.3958 67.6121 69.1309 67.5513V66.8369C69.3278 66.8799 69.548 66.9014 69.7915 66.9014C70.4038 66.9014 70.8407 66.5576 71.1021 65.8701L71.4297 65.0322L69.0557 59.1133Z" fill="#8062BD"/>
<rect x="70" y="101" width="80" height="20" rx="10" fill="white" stroke="#8062BD"/>
<path d="M100.493 115L97.8291 108.039H97.7861C97.8363 108.59 97.8613 109.246 97.8613 110.005V115H97.0181V107.147H98.3931L100.88 113.625H100.923L103.431 107.147H104.795V115H103.882V109.94C103.882 109.36 103.907 108.73 103.958 108.05H103.915L101.229 115H100.493ZM109.307 115.107C108.437 115.107 107.75 114.842 107.245 114.312C106.743 113.783 106.493 113.047 106.493 112.105C106.493 111.156 106.725 110.402 107.191 109.844C107.66 109.285 108.288 109.006 109.076 109.006C109.814 109.006 110.397 109.249 110.827 109.736C111.257 110.22 111.472 110.859 111.472 111.654V112.218H107.417C107.434 112.909 107.608 113.433 107.938 113.792C108.271 114.15 108.738 114.329 109.339 114.329C109.973 114.329 110.6 114.196 111.219 113.931V114.726C110.904 114.862 110.605 114.959 110.322 115.016C110.043 115.077 109.705 115.107 109.307 115.107ZM109.065 109.752C108.593 109.752 108.215 109.906 107.932 110.214C107.653 110.522 107.488 110.948 107.438 111.493H110.516C110.516 110.931 110.39 110.501 110.14 110.204C109.889 109.903 109.531 109.752 109.065 109.752ZM116.794 113.394C116.794 113.942 116.59 114.364 116.182 114.662C115.774 114.959 115.201 115.107 114.463 115.107C113.683 115.107 113.074 114.984 112.637 114.737V113.91C112.92 114.053 113.223 114.166 113.545 114.248C113.871 114.33 114.184 114.372 114.485 114.372C114.95 114.372 115.308 114.298 115.559 114.151C115.81 114.001 115.935 113.774 115.935 113.469C115.935 113.24 115.835 113.045 115.634 112.884C115.437 112.719 115.051 112.526 114.474 112.304C113.926 112.1 113.536 111.922 113.303 111.772C113.074 111.618 112.902 111.444 112.788 111.251C112.677 111.058 112.621 110.827 112.621 110.558C112.621 110.078 112.816 109.701 113.207 109.425C113.597 109.146 114.132 109.006 114.812 109.006C115.446 109.006 116.066 109.135 116.671 109.393L116.354 110.118C115.763 109.874 115.228 109.752 114.748 109.752C114.326 109.752 114.007 109.819 113.792 109.951C113.577 110.084 113.47 110.266 113.47 110.499C113.47 110.657 113.509 110.791 113.588 110.902C113.67 111.013 113.801 111.118 113.98 111.219C114.159 111.319 114.503 111.464 115.011 111.654C115.709 111.908 116.18 112.164 116.424 112.422C116.671 112.68 116.794 113.004 116.794 113.394ZM122.278 115V111.192C122.278 110.712 122.169 110.354 121.951 110.118C121.732 109.881 121.39 109.763 120.925 109.763C120.305 109.763 119.852 109.931 119.566 110.268C119.283 110.605 119.142 111.156 119.142 111.922V115H118.25V106.643H119.142V109.172C119.142 109.477 119.127 109.729 119.099 109.93H119.152C119.328 109.647 119.577 109.425 119.899 109.264C120.225 109.099 120.595 109.017 121.011 109.017C121.73 109.017 122.269 109.188 122.627 109.532C122.989 109.872 123.17 110.415 123.17 111.16V115H122.278Z" fill="#8062BD"/>
<rect x="128" y="51" width="80" height="20" rx="10" fill="white" stroke="#8062BD"/>
<path d="M151.403 65L148.739 58.0391H148.696C148.746 58.5905 148.771 59.2458 148.771 60.0049V65H147.928V57.1475H149.303L151.79 63.625H151.833L154.341 57.1475H155.706V65H154.792V59.9404C154.792 59.3604 154.818 58.7301 154.868 58.0498H154.825L152.139 65H151.403ZM161.351 65L161.173 64.1621H161.13C160.837 64.5309 160.543 64.7816 160.25 64.9141C159.959 65.043 159.596 65.1074 159.159 65.1074C158.576 65.1074 158.117 64.957 157.784 64.6562C157.455 64.3555 157.29 63.9276 157.29 63.3726C157.29 62.1838 158.241 61.5607 160.142 61.5034L161.141 61.4712V61.106C161.141 60.644 161.041 60.3039 160.84 60.0854C160.643 59.8634 160.326 59.7524 159.89 59.7524C159.399 59.7524 158.844 59.9028 158.225 60.2036L157.951 59.5215C158.241 59.3639 158.558 59.2404 158.901 59.1509C159.249 59.0614 159.596 59.0166 159.943 59.0166C160.645 59.0166 161.164 59.1724 161.501 59.4839C161.841 59.7954 162.011 60.2949 162.011 60.9824V65H161.351ZM159.336 64.3716C159.891 64.3716 160.326 64.2194 160.642 63.915C160.96 63.6107 161.12 63.1846 161.12 62.6367V62.105L160.228 62.1426C159.519 62.1676 159.007 62.2786 158.692 62.4756C158.38 62.6689 158.225 62.9715 158.225 63.3833C158.225 63.7056 158.321 63.9508 158.515 64.1191C158.712 64.2874 158.986 64.3716 159.336 64.3716ZM165.755 64.3716C165.912 64.3716 166.065 64.3608 166.211 64.3394C166.358 64.3143 166.475 64.2892 166.561 64.2642V64.9463C166.464 64.9928 166.321 65.0304 166.131 65.0591C165.945 65.0913 165.776 65.1074 165.626 65.1074C164.487 65.1074 163.918 64.5076 163.918 63.3081V59.8062H163.075V59.3765L163.918 59.0059L164.294 57.749H164.81V59.1133H166.518V59.8062H164.81V63.2705C164.81 63.625 164.894 63.8971 165.062 64.0869C165.23 64.2767 165.461 64.3716 165.755 64.3716ZM170.229 65.1074C169.359 65.1074 168.671 64.8424 168.167 64.3125C167.665 63.7826 167.415 63.0467 167.415 62.105C167.415 61.1561 167.647 60.4023 168.113 59.8438C168.582 59.2852 169.21 59.0059 169.998 59.0059C170.736 59.0059 171.319 59.2493 171.749 59.7363C172.179 60.2197 172.394 60.8589 172.394 61.6538V62.2178H168.338C168.356 62.9089 168.53 63.4334 168.859 63.7915C169.192 64.1496 169.66 64.3286 170.261 64.3286C170.895 64.3286 171.522 64.1961 172.141 63.9312V64.7261C171.826 64.8621 171.527 64.9588 171.244 65.0161C170.965 65.077 170.626 65.1074 170.229 65.1074ZM169.987 59.7524C169.515 59.7524 169.137 59.9064 168.854 60.2144C168.575 60.5223 168.41 60.9484 168.36 61.4927H171.438C171.438 60.9305 171.312 60.5008 171.062 60.2036C170.811 59.9028 170.453 59.7524 169.987 59.7524ZM176.604 59.0059C176.866 59.0059 177.1 59.0273 177.308 59.0703L177.185 59.8975C176.941 59.8438 176.726 59.8169 176.54 59.8169C176.064 59.8169 175.656 60.0103 175.315 60.397C174.979 60.7837 174.811 61.2653 174.811 61.8418V65H173.919V59.1133H174.655L174.757 60.2036H174.8C175.018 59.8205 175.281 59.5251 175.589 59.3174C175.897 59.1097 176.236 59.0059 176.604 59.0059ZM179.301 65H178.409V59.1133H179.301V65ZM178.334 57.5181C178.334 57.314 178.384 57.1654 178.484 57.0723C178.585 56.9756 178.71 56.9272 178.86 56.9272C179.004 56.9272 179.127 56.9756 179.231 57.0723C179.335 57.1689 179.387 57.3175 179.387 57.5181C179.387 57.7186 179.335 57.869 179.231 57.9692C179.127 58.0659 179.004 58.1143 178.86 58.1143C178.71 58.1143 178.585 58.0659 178.484 57.9692C178.384 57.869 178.334 57.7186 178.334 57.5181ZM184.812 65L184.634 64.1621H184.591C184.298 64.5309 184.004 64.7816 183.71 64.9141C183.42 65.043 183.057 65.1074 182.62 65.1074C182.036 65.1074 181.578 64.957 181.245 64.6562C180.916 64.3555 180.751 63.9276 180.751 63.3726C180.751 62.1838 181.702 61.5607 183.603 61.5034L184.602 61.4712V61.106C184.602 60.644 184.502 60.3039 184.301 60.0854C184.104 59.8634 183.787 59.7524 183.351 59.7524C182.86 59.7524 182.305 59.9028 181.686 60.2036L181.412 59.5215C181.702 59.3639 182.019 59.2404 182.362 59.1509C182.71 59.0614 183.057 59.0166 183.404 59.0166C184.106 59.0166 184.625 59.1724 184.962 59.4839C185.302 59.7954 185.472 60.2949 185.472 60.9824V65H184.812ZM182.797 64.3716C183.352 64.3716 183.787 64.2194 184.103 63.915C184.421 63.6107 184.581 63.1846 184.581 62.6367V62.105L183.689 62.1426C182.98 62.1676 182.468 62.2786 182.153 62.4756C181.841 62.6689 181.686 62.9715 181.686 63.3833C181.686 63.7056 181.782 63.9508 181.976 64.1191C182.173 64.2874 182.446 64.3716 182.797 64.3716ZM188.206 65H187.314V56.6426H188.206V65Z" fill="#8062BD"/>
<path d="M108.5 96C108.5 96.2761 108.724 96.5 109 96.5C109.276 96.5 109.5 96.2761 109.5 96L108.5 96ZM49.5 73C49.5 72.7239 49.2761 72.5 49 72.5C48.7239 72.5 48.5 72.7239 48.5 73L49.5 73ZM59 84.8212L99 84.8212L99 83.8212L59 83.8212L59 84.8212ZM108.5 94.3212L108.5 96L109.5 96L109.5 94.3212L108.5 94.3212ZM49.5 74.3212L49.5 73L48.5 73L48.5 74.3212L49.5 74.3212ZM99 84.8212C104.247 84.8212 108.5 89.0745 108.5 94.3212L109.5 94.3212C109.5 88.5222 104.799 83.8212 99 83.8212L99 84.8212ZM59 83.8212C53.7533 83.8212 49.5 79.5679 49.5 74.3212L48.5 74.3212C48.5 80.1202 53.201 84.8212 59 84.8212L59 83.8212Z" fill="#B4B4B4"/>
<circle cx="49" cy="71" r="2.25" transform="rotate(90 49 71)" fill="#FAFAFA" stroke="#B4B4B4" stroke-width="1.5"/>
<path d="M106.519 95.0563C106.229 94.8709 105.87 95.1794 106.047 95.4622L108.559 100.173C108.747 100.526 109.253 100.526 109.441 100.173L111.948 95.4754C112.134 95.1977 111.784 94.8791 111.489 95.0563C109.891 96.014 108.086 96.0588 106.519 95.0563Z" fill="#FF008A"/>
<path d="M109.5 96C109.5 96.2761 109.276 96.5 109 96.5C108.724 96.5 108.5 96.2761 108.5 96L109.5 96ZM168.5 73C168.5 72.7239 168.724 72.5 169 72.5C169.276 72.5 169.5 72.7239 169.5 73L168.5 73ZM159 84.8212L119 84.8212L119 83.8212L159 83.8212L159 84.8212ZM109.5 94.3212L109.5 96L108.5 96L108.5 94.3212L109.5 94.3212ZM168.5 74.3212L168.5 73L169.5 73L169.5 74.3212L168.5 74.3212ZM119 84.8212C113.753 84.8212 109.5 89.0745 109.5 94.3212L108.5 94.3212C108.5 88.5222 113.201 83.8212 119 83.8212L119 84.8212ZM159 83.8212C164.247 83.8212 168.5 79.5679 168.5 74.3212L169.5 74.3212C169.5 80.1202 164.799 84.8212 159 84.8212L159 83.8212Z" fill="#B4B4B4"/>
<path d="M169 73.25C170.243 73.25 171.25 72.2426 171.25 71C171.25 69.7574 170.243 68.75 169 68.75C167.757 68.75 166.75 69.7574 166.75 71C166.75 72.2426 167.757 73.25 169 73.25Z" fill="#FAFAFA" stroke="#B4B4B4" stroke-width="1.5"/>
<path d="M111.481 95.0563C111.771 94.8709 112.13 95.1794 111.953 95.4622L109.441 100.173C109.253 100.526 108.747 100.526 108.559 100.173L106.052 95.4754C105.866 95.1977 106.216 94.8791 106.511 95.0563C108.109 96.014 109.914 96.0588 111.481 95.0563Z" fill="#B4B4B4"/>
<rect x="128" y="1" width="80" height="20" rx="10" fill="white" stroke="#8062BD"/>
<path d="M151.822 15H150.909V7.9585H148.422V7.14746H154.309V7.9585H151.822V15ZM157.849 15.1074C156.979 15.1074 156.291 14.8424 155.786 14.3125C155.285 13.7826 155.034 13.0467 155.034 12.105C155.034 11.1561 155.267 10.4023 155.732 9.84375C156.201 9.28516 156.83 9.00586 157.618 9.00586C158.355 9.00586 158.939 9.24935 159.369 9.73633C159.798 10.2197 160.013 10.8589 160.013 11.6538V12.2178H155.958C155.976 12.9089 156.15 13.4334 156.479 13.7915C156.812 14.1496 157.279 14.3286 157.881 14.3286C158.515 14.3286 159.141 14.1961 159.761 13.9312V14.7261C159.446 14.8621 159.147 14.9588 158.864 15.0161C158.584 15.077 158.246 15.1074 157.849 15.1074ZM157.607 9.75244C157.134 9.75244 156.757 9.90641 156.474 10.2144C156.194 10.5223 156.03 10.9484 155.979 11.4927H159.057C159.057 10.9305 158.932 10.5008 158.681 10.2036C158.431 9.90283 158.072 9.75244 157.607 9.75244ZM162.957 11.9868L160.91 9.11328H161.925L163.478 11.3691L165.024 9.11328H166.029L163.982 11.9868L166.136 15H165.126L163.478 12.6152L161.812 15H160.803L162.957 11.9868ZM169.208 14.3716C169.366 14.3716 169.518 14.3608 169.665 14.3394C169.812 14.3143 169.928 14.2892 170.014 14.2642V14.9463C169.917 14.9928 169.774 15.0304 169.584 15.0591C169.398 15.0913 169.23 15.1074 169.08 15.1074C167.941 15.1074 167.372 14.5076 167.372 13.3081V9.80615H166.528V9.37646L167.372 9.00586L167.748 7.74902H168.263V9.11328H169.971V9.80615H168.263V13.2705C168.263 13.625 168.347 13.8971 168.516 14.0869C168.684 14.2767 168.915 14.3716 169.208 14.3716ZM172.034 9.11328V12.9321C172.034 13.4119 172.143 13.77 172.361 14.0063C172.58 14.2427 172.922 14.3608 173.387 14.3608C174.003 14.3608 174.452 14.1925 174.735 13.856C175.022 13.5194 175.165 12.9697 175.165 12.207V9.11328H176.057V15H175.321L175.192 14.2104H175.144C174.961 14.5005 174.707 14.7225 174.381 14.8765C174.059 15.0304 173.69 15.1074 173.274 15.1074C172.558 15.1074 172.021 14.9373 171.663 14.5972C171.309 14.257 171.131 13.7127 171.131 12.9644V9.11328H172.034ZM180.638 9.00586C180.9 9.00586 181.134 9.02734 181.342 9.07031L181.218 9.89746C180.975 9.84375 180.76 9.81689 180.574 9.81689C180.097 9.81689 179.689 10.0103 179.349 10.397C179.013 10.7837 178.844 11.2653 178.844 11.8418V15H177.953V9.11328H178.688L178.791 10.2036H178.833C179.052 9.82048 179.315 9.52507 179.623 9.31738C179.931 9.1097 180.269 9.00586 180.638 9.00586ZM184.93 15.1074C184.06 15.1074 183.372 14.8424 182.867 14.3125C182.366 13.7826 182.115 13.0467 182.115 12.105C182.115 11.1561 182.348 10.4023 182.813 9.84375C183.283 9.28516 183.911 9.00586 184.699 9.00586C185.436 9.00586 186.02 9.24935 186.45 9.73633C186.879 10.2197 187.094 10.8589 187.094 11.6538V12.2178H183.039C183.057 12.9089 183.231 13.4334 183.56 13.7915C183.893 14.1496 184.36 14.3286 184.962 14.3286C185.596 14.3286 186.222 14.1961 186.842 13.9312V14.7261C186.527 14.8621 186.228 14.9588 185.945 15.0161C185.666 15.077 185.327 15.1074 184.93 15.1074ZM184.688 9.75244C184.215 9.75244 183.838 9.90641 183.555 10.2144C183.275 10.5223 183.111 10.9484 183.061 11.4927H186.138C186.138 10.9305 186.013 10.5008 185.762 10.2036C185.512 9.90283 185.153 9.75244 184.688 9.75244Z" fill="#8062BD"/>
<path d="M168.5 49C168.5 49.2761 168.724 49.5 169 49.5C169.276 49.5 169.5 49.2761 169.5 49L168.5 49ZM169.5 23C169.5 22.7239 169.276 22.5 169 22.5C168.724 22.5 168.5 22.7239 168.5 23L169.5 23ZM169.5 49L169.5 23L168.5 23L168.5 49L169.5 49Z" fill="#B4B4B4"/>
<path d="M166.519 45.0563C166.229 44.8709 165.87 45.1794 166.047 45.4622L168.559 50.1731C168.747 50.526 169.253 50.5261 169.441 50.1732L171.948 45.4754C172.134 45.1977 171.784 44.8791 171.489 45.0563C169.891 46.014 168.086 46.0588 166.519 45.0563Z" fill="#B4B4B4"/>
<path d="M169 24.25C170.243 24.25 171.25 23.2426 171.25 22C171.25 20.7574 170.243 19.75 169 19.75C167.757 19.75 166.75 20.7574 166.75 22C166.75 23.2426 167.757 24.25 169 24.25Z" fill="#FAFAFA" stroke="#B4B4B4" stroke-width="1.5"/>
</svg>
